<?xml version="1.0" encoding="UTF-8"?>
<svg id="_x32_" xmlns="http://www.w3.org/2000/svg" version="1.1" viewBox="0 0 176.05 140">
  <!-- Generator: Adobe Illustrator 30.3.0, SVG Export Plug-In . SVG Version: 2.1.3 Build 182)  -->
  <defs>
    <style>
      .st0 {
        fill: #ce304e;
      }
    </style>
  </defs>
  <g>
    <path class="st0" d="M8.41,113.71c-.05.02-.04.18.02.18,1.23.52,2.13,1.39,2.13,2.93,0,1.17-.66,2.01-1.51,2.58-.85.6-2.47.78-3.18.78-.5,0-2.45-.04-3.25-.05-.64-.02-1.07.02-1.35.02-.32,0-.57-.12-.57-.28s.3-.27.5-.3c1.08-.21,1.16-.48,1.23-1.08.04-.37.16-2.15.16-5.67,0-1.51-.07-2.42-.12-2.67-.09-.39-.2-.53-1.12-.71-.23-.04-.44-.14-.44-.34,0-.14.25-.23.48-.23h1.17c.57,0,2.74-.12,3.47-.12,1.03,0,2.03.2,2.56.53.87.53,1.24,1.32,1.24,2.19,0,1.35-.92,1.94-1.4,2.26ZM5.46,109.38c-.11,0-.43.05-.62.11-.04.02-.14.18-.16.28-.04.28-.07.8-.07,3.79,0,.07.09.21.2.21.64,0,1.65-.09,2.08-.41.55-.39.85-1,.85-1.69,0-1.48-1-2.29-2.28-2.29ZM6.9,114.67c-.41-.23-.92-.34-1.53-.34-.25,0-.55.07-.6.12s-.14.14-.14.84c-.02.46.04,2.6.07,3.13.02.14.11.43.23.57.3.32.8.6,1.12.6,1.14,0,2.17-1.14,2.17-2.63,0-1.03-.53-1.89-1.32-2.29Z"/>
    <path class="st0" d="M16.09,118.78c.07-.05.2-.34.2-.41v-3.98c0-.12-.11-.32-.3-.41-.28-.09-.48-.18-.71-.27-.12-.04-.28-.18-.28-.32,0-.07.16-.18.3-.18.71,0,1.83-.12,2.35-.23.18-.04.3-.07.43-.07s.18.21.18.28c-.04.64-.09,5.16-.09,5.73,0,.05.04.32.23.32.18-.02.57-.12.8-.12.07,0,.2.41.21.46.02.04-.12.2-.21.2-.48.04-1.4.27-1.81.37-.3.09-.87.23-.92.23-.07,0-.2-.12-.2-.25,0-.11.04-.43.05-.73,0-.09-.09-.16-.12-.14-.44.34-1.01.71-1.24.8-.3.14-.62.27-1.14.27-.84,0-1.42-.36-1.8-.94-.12-.18-.21-.71-.21-.94,0-1.26-.02-2.99-.05-3.93-.02-.52-.3-.62-.6-.75-.16-.07-.32-.21-.32-.37,0-.09.12-.2.28-.2.5,0,2.38-.2,2.45-.2s.14.2.14.27c.04,1.35-.02,4.02-.02,4.84,0,.34.16.6.34.76.28.21.66.34,1,.34.27,0,.69-.11,1.08-.43Z"/>
    <path class="st0" d="M23.17,112.99c.23.04.6.18.64.2.07.05.14.16.16.3.04.25.07,1.01.07,1.14,0,.16-.14.37-.27.37s-.28-.23-.39-.43c-.39-.75-.84-1.16-1.48-1.16-.44,0-.89.44-.89.91,0,.64.68,1.03,1.56,1.53,1.53.82,1.74,1.44,1.74,2.24s-.53,1.42-1.12,1.8c-.37.25-1.28.44-1.8.44-.55,0-1.46-.12-1.8-.41-.07-.09-.34-.84-.34-1.46,0-.27.11-.41.18-.41.18,0,.3.2.43.41.59,1,1.28,1.33,1.73,1.33.21,0,.53-.11.71-.23.25-.2.36-.52.36-.8,0-.3-.14-.62-.71-.98-.48-.3-.69-.44-1.23-.76-.66-.41-1.23-1.08-1.23-1.99,0-.66.36-1.37,1.1-1.78.39-.21.89-.37,1.55-.37.41,0,.78.05,1.01.11Z"/>
    <path class="st0" d="M25,120.19c-.28,0-.5-.11-.5-.23s.12-.21.48-.32c.41-.12.6-.34.64-.52.07-.25.11-1.51.11-2.77,0-.53,0-1.39-.04-1.6-.02-.14-.23-.32-.6-.64-.11-.11-.21-.2-.21-.28,0-.14.2-.28.48-.34.73-.14,1.85-.57,2.13-.64.09,0,.18.14.18.2-.04.59-.09,2.99-.09,4.02,0,.55.02,1.17.04,1.8.02.53.23.6.69.75.27.09.39.2.39.34s-.25.23-.5.23c-.12,0-1.09-.05-1.48-.05-.57,0-1.42.07-1.72.07ZM27.7,110.25c0,.6-.62,1.08-1.07,1.08-.16,0-.52-.09-.71-.28-.18-.18-.34-.43-.34-.8,0-.2.09-.55.28-.76.21-.2.55-.32.89-.32.62,0,.94.69.94,1.08Z"/>
    <path class="st0" d="M29.3,113.5c.34-.12,1.14-.39,1.42-.53s.52-.27.6-.27c.07,0,.2.2.2.27,0,.2-.02.62-.02.78,0,.11.11.09.12.09.71-.53,1.46-.96,2.26-.96.87,0,1.39.43,1.64.71.41.46.64,1.24.64,2.15,0,.37.04,2.99.05,3.24.04.27.16.48.62.6.34.09.46.18.46.32s-.21.25-.52.25c-.43,0-1.12-.04-1.62-.04-.44,0-1.16.05-1.4.05s-.48-.05-.48-.25c0-.12.2-.23.43-.3.41-.16.5-.32.53-.91.04-.59.04-2.79.04-3.31,0-.36-.14-.84-.39-1.07-.2-.18-.64-.37-1.01-.37-.62,0-.92.18-1.17.36-.07.05-.16.28-.18.39-.02.3.02,4.13.04,4.34.02.25.07.37.62.55.16.07.3.2.3.3,0,.12-.2.25-.5.25-.34,0-1-.04-1.37-.04-.66,0-1.35.05-1.65.05s-.48-.11-.48-.27c0-.14.18-.23.37-.28.59-.2.68-.34.73-1,.05-.53.09-1.96.09-3.75,0-.2-.12-.37-.52-.73-.14-.14-.2-.2-.2-.25,0-.11.2-.34.34-.39Z"/>
    <path class="st0" d="M42.99,113.63c.41.39.68.94.68,1.56,0,.12-.18.43-.39.43h-3.88c-.09,0-.18.05-.2.12-.05.14-.07.41-.07.64,0,.39.21,1.21.55,1.65.44.57,1.19.89,1.97.89s1.26-.18,1.6-.62c.07-.11.16-.21.23-.21s.16.12.16.23-.05.3-.14.44c-.55.85-1.39,1.55-2.85,1.55-2.05,0-3.29-1.55-3.29-3.57,0-1.42.78-2.85,2.26-3.52.44-.21.98-.34,1.46-.34.71,0,1.44.28,1.9.75ZM39.31,114.89c-.02.09.05.18.12.18.46.02,1.01,0,1.9,0,.3,0,.62-.18.62-.6,0-.5-.5-1.08-1-1.08-.75,0-1.44.69-1.65,1.51Z"/>
    <path class="st0" d="M47.96,112.99c.23.04.6.18.64.2.07.05.14.16.16.3.04.25.07,1.01.07,1.14,0,.16-.14.37-.27.37s-.28-.23-.39-.43c-.39-.75-.84-1.16-1.48-1.16-.44,0-.89.44-.89.91,0,.64.68,1.03,1.56,1.53,1.53.82,1.74,1.44,1.74,2.24s-.53,1.42-1.12,1.8c-.37.25-1.28.44-1.8.44-.55,0-1.46-.12-1.8-.41-.07-.09-.34-.84-.34-1.46,0-.27.11-.41.18-.41.18,0,.3.2.43.41.59,1,1.28,1.33,1.73,1.33.21,0,.53-.11.71-.23.25-.2.36-.52.36-.8,0-.3-.14-.62-.71-.98-.48-.3-.69-.44-1.23-.76-.66-.41-1.23-1.08-1.23-1.99,0-.66.36-1.37,1.1-1.78.39-.21.89-.37,1.55-.37.41,0,.78.05,1.01.11Z"/>
    <path class="st0" d="M53.18,112.99c.23.04.6.18.64.2.07.05.14.16.16.3.04.25.07,1.01.07,1.14,0,.16-.14.37-.27.37s-.28-.23-.39-.43c-.39-.75-.84-1.16-1.48-1.16-.44,0-.89.44-.89.91,0,.64.68,1.03,1.56,1.53,1.53.82,1.74,1.44,1.74,2.24s-.53,1.42-1.12,1.8c-.37.25-1.28.44-1.8.44-.55,0-1.46-.12-1.8-.41-.07-.09-.34-.84-.34-1.46,0-.27.11-.41.18-.41.18,0,.3.2.43.41.59,1,1.28,1.33,1.73,1.33.21,0,.53-.11.71-.23.25-.2.36-.52.36-.8,0-.3-.14-.62-.71-.98-.48-.3-.69-.44-1.23-.76-.66-.41-1.23-1.08-1.23-1.99,0-.66.36-1.37,1.1-1.78.39-.21.89-.37,1.55-.37.41,0,.78.05,1.01.11Z"/>
    <path class="st0" d="M66.75,108.84c.43.11.87.21,1.28.27.12,0,.27.21.27.46.02.52.05,1.14.09,1.65.02.37-.11.68-.3.68-.09,0-.23-.21-.34-.48-.18-.55-.44-1.03-.75-1.26-.76-.66-1.67-1.03-2.63-1.03-2.83,0-4.16,2.22-4.16,4.94,0,1.19.21,2.22.6,3.01.98,1.96,2.6,2.65,3.98,2.65.23,0,1.1-.04,1.72-.41.66-.37,1.14-.89,1.55-1.62.21-.39.34-.55.48-.55.2,0,.2.46.14.66-.09.44-.37,1.23-.53,1.55-.05.16-.37.44-.64.57-.25.09-1.48.52-3.11.52-2.63,0-4.5-1.19-5.21-2.03-.68-.78-1.49-2.01-1.49-3.98,0-2.15,1.19-3.66,1.94-4.27,1.51-1.24,3.34-1.6,4.8-1.6.82,0,1.67.12,2.31.28Z"/>
    <path class="st0" d="M77.17,116.58c0,1.51-.92,2.6-1.58,3.02-.73.52-1.64.73-2.45.73s-1.8-.37-2.45-.92c-.76-.62-1.33-1.74-1.33-2.74,0-1.24.55-2.19,1.23-2.76.53-.46,1.53-1.03,2.85-1.03,1.78,0,3.75,1.39,3.75,3.7ZM72.21,113.86c-.41.37-.73,1.16-.73,2.33,0,.59.07,1.26.21,1.71.37,1.24,1.19,1.85,1.94,1.85.18,0,.52-.14.78-.46.37-.46.66-1.4.66-2.42,0-.75-.16-1.9-.71-2.69-.32-.41-.78-.71-1.28-.71-.3,0-.59.12-.87.39Z"/>
    <path class="st0" d="M78.08,113.5c.34-.12,1.14-.39,1.42-.53s.52-.27.6-.27c.07,0,.2.2.2.27,0,.2-.02.62-.02.78,0,.11.11.09.12.09.71-.53,1.46-.96,2.26-.96.87,0,1.39.43,1.64.71.41.46.64,1.24.64,2.15,0,.37.04,2.99.05,3.24.04.27.16.48.62.6.34.09.46.18.46.32s-.21.25-.52.25c-.43,0-1.12-.04-1.62-.04-.44,0-1.16.05-1.4.05s-.48-.05-.48-.25c0-.12.2-.23.43-.3.41-.16.5-.32.53-.91.04-.59.04-2.79.04-3.31,0-.36-.14-.84-.39-1.07-.2-.18-.64-.37-1.01-.37-.62,0-.92.18-1.17.36-.07.05-.16.28-.18.39-.02.3.02,4.13.04,4.34.02.25.07.37.62.55.16.07.3.2.3.3,0,.12-.2.25-.5.25-.34,0-1-.04-1.37-.04-.66,0-1.35.05-1.65.05s-.48-.11-.48-.27c0-.14.18-.23.37-.28.59-.2.68-.34.73-1,.05-.53.09-1.96.09-3.75,0-.2-.12-.37-.52-.73-.14-.14-.2-.2-.2-.25,0-.11.2-.34.34-.39Z"/>
    <path class="st0" d="M89.96,112.99c.23.04.6.18.64.2.07.05.14.16.16.3.04.25.07,1.01.07,1.14,0,.16-.14.37-.27.37s-.28-.23-.39-.43c-.39-.75-.84-1.16-1.48-1.16-.44,0-.89.44-.89.91,0,.64.68,1.03,1.56,1.53,1.53.82,1.74,1.44,1.74,2.24s-.53,1.42-1.12,1.8c-.37.25-1.28.44-1.8.44-.55,0-1.46-.12-1.8-.41-.07-.09-.34-.84-.34-1.46,0-.27.11-.41.18-.41.18,0,.3.2.43.41.59,1,1.28,1.33,1.72,1.33.21,0,.53-.11.71-.23.25-.2.36-.52.36-.8,0-.3-.14-.62-.71-.98-.48-.3-.69-.44-1.23-.76-.66-.41-1.23-1.08-1.23-1.99,0-.66.36-1.37,1.1-1.78.39-.21.89-.37,1.55-.37.41,0,.78.05,1.01.11Z"/>
    <path class="st0" d="M96.55,118.78c.07-.05.2-.34.2-.41v-3.98c0-.12-.11-.32-.3-.41-.28-.09-.48-.18-.71-.27-.12-.04-.28-.18-.28-.32,0-.07.16-.18.3-.18.71,0,1.83-.12,2.35-.23.18-.04.3-.07.43-.07s.18.21.18.28c-.04.64-.09,5.16-.09,5.73,0,.05.04.32.23.32.18-.02.57-.12.8-.12.07,0,.2.41.21.46.02.04-.12.2-.21.2-.48.04-1.4.27-1.81.37-.3.09-.87.23-.92.23-.07,0-.2-.12-.2-.25,0-.11.04-.43.05-.73,0-.09-.09-.16-.12-.14-.44.34-1.01.71-1.24.8-.3.14-.62.27-1.14.27-.84,0-1.42-.36-1.8-.94-.12-.18-.21-.71-.21-.94,0-1.26-.02-2.99-.05-3.93-.02-.52-.3-.62-.6-.75-.16-.07-.32-.21-.32-.37,0-.09.12-.2.28-.2.5,0,2.38-.2,2.45-.2s.14.2.14.27c.04,1.35-.02,4.02-.02,4.84,0,.34.16.6.34.76.28.21.66.34,1,.34.27,0,.69-.11,1.08-.43Z"/>
    <path class="st0" d="M100.23,108.33c.76-.21,1.62-.36,2.31-.8.05-.04.21.11.21.18-.05.62-.14,4.21-.14,6.88,0,1.39.02,3.73.07,4.27.05.41.12.62.8.82.25.09.37.18.37.3,0,.16-.28.21-.48.21-.43,0-1.44-.07-1.76-.07-.41,0-1.28.07-1.65.07s-.52-.12-.52-.21c0-.2.23-.27.43-.3.59-.16.69-.43.75-1.35.05-.8.11-2.79.11-5.6,0-.94,0-2.61-.02-3.13-.02-.2-.11-.3-.46-.6-.25-.18-.34-.27-.34-.36s.12-.23.32-.3Z"/>
    <path class="st0" d="M108.41,113.07c.07,0,.27.07.27.2,0-.05.05.52.05.73,0,.18-.34.21-.46.21h-1.69c-.11,0-.18.09-.18.12,0,.89-.02,2.54-.02,3.59,0,.44.09.66.28.84.2.18.59.3.87.3.18,0,.55-.12.78-.25.14-.09.23-.12.3-.12.05,0,.12.09.12.28,0,.16-.18.39-.28.52-.48.5-1.19.84-2.03.84-.71,0-1.37-.36-1.65-.76-.21-.3-.32-.57-.32-1.26s.07-3.24.07-3.86c0-.12-.3-.25-.68-.39-.14-.05-.21-.2-.21-.3,0-.07.02-.11.09-.16.89-.59,1.48-1.01,1.87-1.42.21-.25.34-.39.41-.39.12,0,.36.18.36.3v.89c0,.05.09.16.16.16.39,0,1.81-.05,1.89-.05Z"/>
    <path class="st0" d="M108.97,120.19c-.28,0-.5-.11-.5-.23s.12-.21.48-.32c.41-.12.6-.34.64-.52.07-.25.11-1.51.11-2.77,0-.53,0-1.39-.04-1.6-.02-.14-.23-.32-.6-.64-.11-.11-.21-.2-.21-.28,0-.14.2-.28.48-.34.73-.14,1.85-.57,2.13-.64.09,0,.18.14.18.2-.04.59-.09,2.99-.09,4.02,0,.55.02,1.17.04,1.8.02.53.23.6.69.75.27.09.39.2.39.34s-.25.23-.5.23c-.12,0-1.09-.05-1.48-.05-.57,0-1.42.07-1.72.07ZM111.67,110.25c0,.6-.62,1.08-1.07,1.08-.16,0-.52-.09-.71-.28-.18-.18-.34-.43-.34-.8,0-.2.09-.55.28-.76.21-.2.55-.32.89-.32.62,0,.94.69.94,1.08Z"/>
    <path class="st0" d="M113.27,113.5c.34-.12,1.14-.39,1.42-.53s.52-.27.6-.27c.07,0,.2.2.2.27,0,.2-.02.62-.02.78,0,.11.11.09.12.09.71-.53,1.46-.96,2.26-.96.87,0,1.39.43,1.64.71.41.46.64,1.24.64,2.15,0,.37.04,2.99.05,3.24.04.27.16.48.62.6.34.09.46.18.46.32s-.21.25-.52.25c-.43,0-1.12-.04-1.62-.04-.44,0-1.16.05-1.4.05s-.48-.05-.48-.25c0-.12.2-.23.43-.3.41-.16.5-.32.53-.91.04-.59.04-2.79.04-3.31,0-.36-.14-.84-.39-1.07-.2-.18-.64-.37-1.01-.37-.62,0-.92.18-1.17.36-.07.05-.16.28-.18.39-.02.3.02,4.13.04,4.34.02.25.07.37.62.55.16.07.3.2.3.3,0,.12-.2.25-.5.25-.34,0-1-.04-1.37-.04-.66,0-1.35.05-1.65.05s-.48-.11-.48-.27c0-.14.18-.23.37-.28.59-.2.68-.34.73-1,.05-.53.09-1.96.09-3.75,0-.2-.12-.37-.52-.73-.14-.14-.2-.2-.2-.25,0-.11.2-.34.34-.39Z"/>
    <path class="st0" d="M126.29,113.09c.2.04.36.11.48.11.41.02,1.71.09,2.01.14.11.02.18.12.18.2,0,.27-.32.68-.39.68-.11,0-.6.02-1.03-.02-.09,0-.12.11-.11.12.05.21.11.46.11.76,0,.96-.32,1.69-1.01,2.22-.8.59-1.74.68-2.15.68-.11,0-.53-.02-.71-.04-.12-.02-.2-.02-.25.04-.14.09-.34.32-.34.46,0,.34.44.64.66.66.78.04,2.83.09,3.34.18.18.02.59.16.91.43.48.43.76,1.03.76,1.62,0,1.44-1.12,2.4-1.83,2.85-.91.57-1.83.78-2.7.78s-1.58-.18-2.24-.6c-.59-.41-.94-1.03-.94-1.6,0-.64.32-.89.55-1.05.36-.23.91-.57,1.14-.73.05-.04.07-.09,0-.12-.16-.05-.5-.18-.73-.34-.41-.28-.68-.76-.68-1.4,0-.05.05-.18.11-.21.16-.12,1.16-.68,1.44-1.01.04-.02.04-.12-.04-.18-.52-.25-1.44-.96-1.44-2.24,0-.82.37-1.48,1.07-1.99.53-.39,1.26-.66,2.15-.66.73,0,1.19.14,1.69.28ZM126.39,123.8c.6-.36.8-.94.8-1.42,0-.25-.09-.62-.3-.85-.23-.25-.52-.39-1-.46-.62-.09-.92-.09-1.85-.09-.39,0-.71.11-.85.21-.36.32-.53.75-.53,1.14,0,.52.25.96.62,1.26.46.37,1.12.52,1.72.52.48,0,.98-.09,1.39-.3ZM123.73,113.68c-.27.36-.41.85-.41,1.51,0,1.14.57,2.29,1.42,2.29.12,0,.36-.11.55-.27.28-.27.48-1.03.48-1.8,0-.28-.12-1.05-.39-1.44-.27-.41-.6-.68-.96-.68-.27,0-.55.16-.69.37Z"/>
    <path class="st0" d="M138.02,108.84c.07.04.21.28.23.37,0,.23.18,1.6.18,1.67,0,.27-.05.43-.16.43-.14,0-.43-.14-.52-.41-.18-.59-.55-1.08-.76-1.26-.43-.36-.87-.5-1.42-.5-.84,0-1.81.69-1.81,1.85,0,1.05.78,1.62,2.38,2.63,2.19,1.33,2.61,2.47,2.61,3.56,0,.92-.53,1.99-1.56,2.61-.6.37-1.64.64-2.49.64-1.05,0-1.83-.18-2.56-.46-.14-.07-.46-.44-.46-.53-.14-.6-.3-1.37-.3-1.89,0-.12.2-.37.28-.37.14,0,.43.43.69.98.53,1.08,1.56,1.64,2.47,1.64.82,0,1.85-.64,1.85-1.78,0-.75-.37-1.46-2.01-2.53-1.81-1.19-2.79-2.17-2.79-3.75,0-1.01.52-1.87,1.09-2.33.59-.5,1.42-.85,2.83-.85.82,0,1.76.21,2.24.28Z"/>
    <path class="st0" d="M145.63,113.36c.23.16.3.41.3.64,0,.32-.59.84-.69.84-.16,0-.44-.12-.82-.44-.48-.39-.85-.76-1.4-.76-.2,0-.5.11-.76.39-.44.46-.69,1.35-.69,2.17,0,1.16.48,1.76.57,1.87.34.46.98.96,1.94.96.52,0,1.1-.21,1.71-.59.09-.05.23,0,.23.14,0,.18-.14.41-.28.55-.6.64-1.64,1.19-2.74,1.19-1.3,0-2.29-.68-2.79-1.42-.36-.55-.59-1.33-.59-2.06,0-1.39.71-2.4,1.78-3.09.62-.44,1.8-.76,2.51-.76.53,0,1.42.14,1.74.39Z"/>
    <path class="st0" d="M152.94,113.73c.36.48.5,1.19.5,1.96.02,1.12.05,2.42.07,3.2.02.44.23.6.71.73.36.09.46.2.46.32,0,.14-.14.25-.52.25-.52,0-1-.07-1.46-.07-.66,0-1.01.05-1.64.05-.32,0-.44-.12-.44-.23s.14-.21.37-.28c.43-.12.5-.3.55-.89.04-.39.04-2.61.04-2.97,0-.91-.21-1.26-.44-1.46-.27-.23-.62-.39-1.09-.39-.53,0-.94.2-1.01.25-.07.05-.2.34-.21.6-.05.94-.05,3.34-.04,3.86.02.6.18.82.6.92.28.07.43.2.43.3,0,.2-.28.25-.52.25-.14,0-.78-.02-1.62-.02-.75,0-1.23.05-1.53.05-.2,0-.44-.09-.44-.25,0-.11.12-.23.5-.34.52-.2.59-.5.62-.87.07-.62.16-2.76.16-5.09,0-1.33,0-3.61-.05-3.95-.05-.43-.18-.46-.66-.8-.07-.04-.18-.21-.18-.34,0-.05.05-.11.12-.12.3-.07,1.67-.34,2.31-.71.14-.09.21-.12.3-.12.07,0,.18.16.18.21-.2,1.35-.23,5.6-.21,5.9,0,.04.07.12.12.09.62-.57,1.42-.91,2.08-.91.92,0,1.55.34,1.92.85Z"/>
    <path class="st0" d="M162.49,116.58c0,1.51-.92,2.6-1.58,3.02-.73.52-1.64.73-2.45.73s-1.8-.37-2.45-.92c-.76-.62-1.33-1.74-1.33-2.74,0-1.24.55-2.19,1.23-2.76.53-.46,1.53-1.03,2.85-1.03,1.78,0,3.75,1.39,3.75,3.7ZM157.53,113.86c-.41.37-.73,1.16-.73,2.33,0,.59.07,1.26.21,1.71.37,1.24,1.19,1.85,1.94,1.85.18,0,.52-.14.78-.46.37-.46.66-1.4.66-2.42,0-.75-.16-1.9-.71-2.69-.32-.41-.78-.71-1.28-.71-.3,0-.59.12-.87.39Z"/>
    <path class="st0" d="M170.88,116.58c0,1.51-.92,2.6-1.58,3.02-.73.52-1.64.73-2.45.73s-1.8-.37-2.45-.92c-.76-.62-1.33-1.74-1.33-2.74,0-1.24.55-2.19,1.23-2.76.53-.46,1.53-1.03,2.85-1.03,1.78,0,3.75,1.39,3.75,3.7ZM165.92,113.86c-.41.37-.73,1.16-.73,2.33,0,.59.07,1.26.21,1.71.37,1.24,1.19,1.85,1.94,1.85.18,0,.52-.14.78-.46.37-.46.66-1.4.66-2.42,0-.75-.16-1.9-.71-2.69-.32-.41-.78-.71-1.28-.71-.3,0-.59.12-.87.39Z"/>
    <path class="st0" d="M171.65,108.33c.76-.21,1.62-.36,2.31-.8.05-.04.21.11.21.18-.05.62-.14,4.21-.14,6.88,0,1.39.02,3.73.07,4.27.05.41.12.62.8.82.25.09.37.18.37.3,0,.16-.28.21-.48.21-.43,0-1.44-.07-1.76-.07-.41,0-1.28.07-1.65.07s-.52-.12-.52-.21c0-.2.23-.27.43-.3.59-.16.69-.43.75-1.35.05-.8.11-2.79.11-5.6,0-.94,0-2.61-.02-3.13-.02-.2-.11-.3-.46-.6-.25-.18-.34-.27-.34-.36s.12-.23.32-.3Z"/>
    <path class="st0" d="M84.98,131.62c0,1.51-.92,2.6-1.58,3.02-.73.52-1.64.73-2.45.73s-1.8-.37-2.45-.92c-.76-.62-1.33-1.74-1.33-2.74,0-1.24.55-2.19,1.23-2.76.53-.46,1.53-1.03,2.85-1.03,1.78,0,3.75,1.39,3.75,3.7ZM80.02,128.9c-.41.37-.73,1.16-.73,2.33,0,.59.07,1.26.21,1.71.37,1.24,1.19,1.85,1.94,1.85.18,0,.52-.14.78-.46.37-.46.66-1.4.66-2.42,0-.75-.16-1.9-.71-2.69-.32-.41-.78-.71-1.28-.71-.3,0-.59.12-.87.39Z"/>
    <path class="st0" d="M90.22,128.16c.12,0,.25.46.25.82,0,.05-.18.2-.27.2-.12,0-1.55-.04-1.74-.04-.05,0-.14.12-.14.2-.02.32.02,3.79.07,4.41.05.55.12.75,1.03.92.32.07.44.23.44.3,0,.14-.21.25-.53.25-.21,0-.94-.05-1.39-.05-1.08,0-1.94.07-2.28.07-.21,0-.44-.07-.44-.25,0-.07.18-.23.37-.28.71-.23.73-.39.75-1.21.02-.73.04-3.04.04-4,0-.27-.07-.34-.14-.34-.23,0-.53,0-.76.04-.07,0-.2-.18-.18-.3.02-.07.52-.39.92-.71.12-.11.18-.16.18-.25,0-.78.2-1.81.59-2.58.41-.87.91-1.49,1.71-2.03.71-.5,1.42-.69,2.03-.69.46,0,.92.11,1.23.32.2.12.44.48.44.73,0,.39-.34.85-.64.96-.09.04-.28.05-.37.05-.14,0-.28-.05-.53-.34-.36-.36-.82-.82-1.28-.82-.32,0-.52.12-.69.41-.32.46-.57,1.33-.57,4.09,0,.05.11.14.12.14,1.07,0,1.72-.02,1.8-.02Z"/>
    <path class="st0" d="M93.42,128.67c.44-.14,1.49-.59,1.92-.8.09-.05.12-.04.16-.02.09.05.16.2.16.23,0,.25-.05.59-.05.76,0,.04.07.16.12.11.69-.55,1.53-1.03,2.4-1.03.55,0,1.01.14,1.3.37.3.21.48.48.57.64.02.05.11.07.14.05.3-.23.71-.52,1.16-.75.41-.21.89-.32,1.19-.32.69,0,1.14.21,1.53.62.48.46.64,1.12.68,1.8.04.59.07,2.53.09,3.66.02.3.16.57.62.71.23.07.36.18.36.28,0,.12-.18.23-.5.23-.36,0-.94-.07-1.42-.07-.6,0-1.05.05-1.46.05-.34,0-.44-.14-.44-.27,0-.11.18-.2.37-.27.46-.14.53-.3.55-1,.02-.46-.02-2.51-.02-3.09,0-.3-.05-.66-.25-1-.21-.34-.57-.59-1.12-.59-.62,0-.92.25-1.1.39-.09.07-.14.37-.14.55,0,.12-.02,3.45.02,3.84.05.57.12.73.75.91.2.05.37.14.37.27s-.18.25-.46.25c-.39,0-1.19-.05-1.6-.05-.37,0-1.09.04-1.46.04-.44,0-.52-.12-.52-.27,0-.05.12-.18.36-.25.48-.14.64-.32.64-.96l.02-3.06c.02-.71-.12-1-.21-1.12-.23-.32-.62-.55-1.16-.55-.39,0-.76.12-1.08.39-.09.09-.16.25-.16.39-.02,1.16-.02,2.76-.02,4.11,0,.37.14.6.62.76.34.11.43.18.43.32,0,.11-.23.23-.48.23-.07,0-1.07-.04-1.74-.04-.59,0-1.12.07-1.49.07-.25,0-.5-.07-.5-.23,0-.11.12-.21.44-.3.62-.14.68-.37.75-1.14.04-.48.09-1.85.09-3.41,0-.16,0-.32-.11-.41-.43-.43-.64-.64-.64-.75s.21-.28.34-.32Z"/>
    <path class="st0" d="M111.06,128.89c.21.28.39.73.39,1.53,0,.69-.07,2.81-.07,3.01,0,.5.36.71.66.71.09,0,.44-.14.62-.21.05-.04.07-.02.11.02.04.07.05.2.05.25,0,.34-.84,1.21-1.83,1.21-.52,0-1.07-.16-1.33-.85-.02-.07-.12-.11-.16-.07-.44.32-1.17.66-1.4.75-.2.07-.55.14-.78.14-.66,0-1.37-.8-1.37-1.8,0-.32.14-.66.32-.91.18-.25.48-.36.64-.43.39-.16,2.01-.6,2.42-.73.21-.07.32-.2.32-.27.02-.16.05-1.14.04-1.37-.02-.43-.39-1.14-1.19-1.14-.25,0-.44.04-.57.12-.07.04-.11.21-.11.82,0,.07-.04.12-.07.16-.12.12-1.44.71-1.56.71-.11,0-.23-.14-.23-.25,0-.52.39-1,1.49-1.71.66-.43,1.53-.66,1.78-.66,1.08,0,1.58.57,1.85.96ZM109.41,134.08c.07-.05.14-.27.14-.34.04-.25.07-1,.07-1.58,0-.07-.07-.18-.12-.18-.3,0-1.12.27-1.44.46-.21.16-.32.25-.32.71,0,.78.64,1.14.98,1.14.16,0,.52-.11.69-.21Z"/>
    <path class="st0" d="M113.27,128.55c.34-.12,1.14-.39,1.42-.53s.52-.27.6-.27c.07,0,.2.2.2.27,0,.2-.02.62-.02.78,0,.11.11.09.12.09.71-.53,1.46-.96,2.26-.96.87,0,1.39.43,1.64.71.41.46.64,1.24.64,2.15,0,.37.04,2.99.05,3.24.04.27.16.48.62.6.34.09.46.18.46.32s-.21.25-.52.25c-.43,0-1.12-.04-1.62-.04-.44,0-1.16.05-1.4.05s-.48-.05-.48-.25c0-.12.2-.23.43-.3.41-.16.5-.32.53-.91.04-.59.04-2.79.04-3.31,0-.36-.14-.84-.39-1.07-.2-.18-.64-.37-1.01-.37-.62,0-.92.18-1.17.36-.07.05-.16.28-.18.39-.02.3.02,4.13.04,4.34.02.25.07.37.62.55.16.07.3.2.3.3,0,.12-.2.25-.5.25-.34,0-1-.04-1.37-.04-.66,0-1.35.05-1.65.05s-.48-.11-.48-.27c0-.14.18-.23.37-.28.59-.2.68-.34.73-1,.05-.53.09-1.96.09-3.75,0-.2-.12-.37-.52-.73-.14-.14-.2-.2-.2-.25,0-.11.2-.34.34-.39Z"/>
    <path class="st0" d="M126.45,128.89c.21.28.39.73.39,1.53,0,.69-.07,2.81-.07,3.01,0,.5.36.71.66.71.09,0,.44-.14.62-.21.05-.04.07-.02.11.02.04.07.05.2.05.25,0,.34-.84,1.21-1.83,1.21-.52,0-1.07-.16-1.33-.85-.02-.07-.12-.11-.16-.07-.44.32-1.17.66-1.4.75-.2.07-.55.14-.78.14-.66,0-1.37-.8-1.37-1.8,0-.32.14-.66.32-.91.18-.25.48-.36.64-.43.39-.16,2.01-.6,2.42-.73.21-.07.32-.2.32-.27.02-.16.05-1.14.04-1.37-.02-.43-.39-1.14-1.19-1.14-.25,0-.44.04-.57.12-.07.04-.11.21-.11.82,0,.07-.04.12-.07.16-.12.12-1.44.71-1.56.71-.11,0-.23-.14-.23-.25,0-.52.39-1,1.49-1.71.66-.43,1.53-.66,1.78-.66,1.09,0,1.58.57,1.85.96ZM124.79,134.08c.07-.05.14-.27.14-.34.04-.25.07-1,.07-1.58,0-.07-.07-.18-.12-.18-.3,0-1.12.27-1.44.46-.21.16-.32.25-.32.71,0,.78.64,1.14.98,1.14.16,0,.52-.11.69-.21Z"/>
    <path class="st0" d="M133.24,128.14c.2.04.36.11.48.11.41.02,1.71.09,2.01.14.11.02.18.12.18.2,0,.27-.32.68-.39.68-.11,0-.6.02-1.03-.02-.09,0-.12.11-.11.12.05.21.11.46.11.76,0,.96-.32,1.69-1.01,2.22-.8.59-1.74.68-2.15.68-.11,0-.53-.02-.71-.04-.12-.02-.2-.02-.25.04-.14.09-.34.32-.34.46,0,.34.44.64.66.66.78.04,2.83.09,3.34.18.18.02.59.16.91.43.48.43.76,1.03.76,1.62,0,1.44-1.12,2.4-1.83,2.85-.91.57-1.83.78-2.7.78s-1.58-.18-2.24-.6c-.59-.41-.94-1.03-.94-1.6,0-.64.32-.89.55-1.05.36-.23.91-.57,1.14-.73.05-.04.07-.09,0-.12-.16-.05-.5-.18-.73-.34-.41-.28-.68-.76-.68-1.4,0-.05.05-.18.11-.21.16-.12,1.16-.68,1.44-1.01.04-.02.04-.12-.04-.18-.52-.25-1.44-.96-1.44-2.24,0-.82.37-1.48,1.07-1.99.53-.39,1.26-.66,2.15-.66.73,0,1.19.14,1.69.28ZM133.35,138.84c.6-.36.8-.94.8-1.42,0-.25-.09-.62-.3-.85-.23-.25-.52-.39-1-.46-.62-.09-.92-.09-1.85-.09-.39,0-.71.11-.85.21-.36.32-.53.75-.53,1.14,0,.52.25.96.62,1.26.46.37,1.12.52,1.72.52.48,0,.98-.09,1.39-.3ZM130.68,128.73c-.27.36-.41.85-.41,1.51,0,1.14.57,2.29,1.42,2.29.12,0,.36-.11.55-.27.28-.27.48-1.03.48-1.8,0-.28-.12-1.05-.39-1.44-.27-.41-.6-.68-.96-.68-.27,0-.55.16-.69.37Z"/>
    <path class="st0" d="M141.24,128.67c.41.39.68.94.68,1.56,0,.12-.18.43-.39.43h-3.88c-.09,0-.18.05-.2.12-.05.14-.07.41-.07.64,0,.39.21,1.21.55,1.65.44.57,1.19.89,1.97.89s1.26-.18,1.6-.62c.07-.11.16-.21.23-.21s.16.12.16.23-.05.3-.14.44c-.55.85-1.39,1.55-2.85,1.55-2.05,0-3.29-1.55-3.29-3.57,0-1.42.78-2.85,2.26-3.52.44-.21.98-.34,1.46-.34.71,0,1.44.28,1.9.75ZM137.56,129.93c-.02.09.05.18.12.18.46.02,1.01,0,1.9,0,.3,0,.62-.18.62-.6,0-.5-.5-1.08-1-1.08-.75,0-1.44.69-1.65,1.51Z"/>
    <path class="st0" d="M142.63,128.67c.44-.14,1.49-.59,1.92-.8.09-.05.12-.04.16-.02.09.05.16.2.16.23,0,.25-.05.59-.05.76,0,.04.07.16.12.11.69-.55,1.53-1.03,2.4-1.03.55,0,1.01.14,1.3.37.3.21.48.48.57.64.02.05.11.07.14.05.3-.23.71-.52,1.16-.75.41-.21.89-.32,1.19-.32.69,0,1.14.21,1.53.62.48.46.64,1.12.68,1.8.04.59.07,2.53.09,3.66.02.3.16.57.62.71.23.07.36.18.36.28,0,.12-.18.23-.5.23-.36,0-.94-.07-1.42-.07-.6,0-1.05.05-1.46.05-.34,0-.44-.14-.44-.27,0-.11.18-.2.37-.27.46-.14.53-.3.55-1,.02-.46-.02-2.51-.02-3.09,0-.3-.05-.66-.25-1-.21-.34-.57-.59-1.12-.59-.62,0-.92.25-1.1.39-.09.07-.14.37-.14.55,0,.12-.02,3.45.02,3.84.05.57.12.73.75.91.2.05.37.14.37.27s-.18.25-.46.25c-.39,0-1.19-.05-1.6-.05-.37,0-1.09.04-1.46.04-.44,0-.52-.12-.52-.27,0-.05.12-.18.36-.25.48-.14.64-.32.64-.96l.02-3.06c.02-.71-.12-1-.21-1.12-.23-.32-.62-.55-1.16-.55-.39,0-.76.12-1.08.39-.09.09-.16.25-.16.39-.02,1.16-.02,2.76-.02,4.11,0,.37.14.6.62.76.34.11.43.18.43.32,0,.11-.23.23-.48.23-.07,0-1.07-.04-1.74-.04-.59,0-1.12.07-1.49.07-.25,0-.5-.07-.5-.23,0-.11.12-.21.44-.3.62-.14.68-.37.75-1.14.04-.48.09-1.85.09-3.41,0-.16,0-.32-.11-.41-.43-.43-.64-.64-.64-.75s.21-.28.34-.32Z"/>
    <path class="st0" d="M160.78,128.67c.41.39.68.94.68,1.56,0,.12-.18.43-.39.43h-3.88c-.09,0-.18.05-.2.12-.05.14-.07.41-.07.64,0,.39.21,1.21.55,1.65.44.57,1.19.89,1.97.89s1.26-.18,1.6-.62c.07-.11.16-.21.23-.21s.16.12.16.23-.05.3-.14.44c-.55.85-1.39,1.55-2.85,1.55-2.05,0-3.29-1.55-3.29-3.57,0-1.42.78-2.85,2.26-3.52.44-.21.98-.34,1.46-.34.71,0,1.44.28,1.9.75ZM157.1,129.93c-.02.09.05.18.12.18.46.02,1.01,0,1.9,0,.3,0,.62-.18.62-.6,0-.5-.5-1.08-1-1.08-.75,0-1.44.69-1.65,1.51Z"/>
    <path class="st0" d="M162.21,128.55c.34-.12,1.14-.39,1.42-.53.28-.14.52-.27.6-.27.07,0,.2.2.2.27,0,.2-.02.62-.02.78,0,.11.11.09.12.09.71-.53,1.46-.96,2.26-.96.87,0,1.39.43,1.64.71.41.46.64,1.24.64,2.15,0,.37.04,2.99.05,3.24.04.27.16.48.62.6.34.09.46.18.46.32s-.21.25-.52.25c-.43,0-1.12-.04-1.62-.04-.44,0-1.16.05-1.4.05s-.48-.05-.48-.25c0-.12.2-.23.43-.3.41-.16.5-.32.53-.91.04-.59.04-2.79.04-3.31,0-.36-.14-.84-.39-1.07-.2-.18-.64-.37-1.01-.37-.62,0-.92.18-1.17.36-.07.05-.16.28-.18.39-.02.3.02,4.13.04,4.34.02.25.07.37.62.55.16.07.3.2.3.3,0,.12-.2.25-.5.25-.34,0-1-.04-1.37-.04-.66,0-1.35.05-1.65.05s-.48-.11-.48-.27c0-.14.18-.23.37-.28.59-.2.68-.34.73-1,.05-.53.09-1.96.09-3.75,0-.2-.12-.37-.52-.73-.14-.14-.2-.2-.2-.25,0-.11.2-.34.34-.39Z"/>
    <path class="st0" d="M174.81,128.12c.07,0,.27.07.27.2,0-.05.05.52.05.73,0,.18-.34.21-.46.21h-1.69c-.11,0-.18.09-.18.12,0,.89-.02,2.54-.02,3.59,0,.44.09.66.28.84.2.18.59.3.87.3.18,0,.55-.12.78-.25.14-.09.23-.12.3-.12.05,0,.12.09.12.28,0,.16-.18.39-.28.52-.48.5-1.19.84-2.03.84-.71,0-1.37-.36-1.65-.76-.21-.3-.32-.57-.32-1.26s.07-3.24.07-3.86c0-.12-.3-.25-.68-.39-.14-.05-.21-.2-.21-.3,0-.07.02-.11.09-.16.89-.59,1.48-1.01,1.87-1.42.21-.25.34-.39.41-.39.12,0,.36.18.36.3v.89c0,.05.09.16.16.16.39,0,1.81-.05,1.89-.05Z"/>
  </g>
  <rect class="st0" x="134.3" y="95.75" width="41.13" height="1.84"/>
  <g>
    <path class="st0" d="M5.85,47.21c0-6.87-.14-7.55-2.99-7.96l-1.84-.27c-.61-.34-.75-2.38.27-2.45,5.17-.34,10.14-.61,16.95-.61s10.89.75,13.88,2.52c2.93,1.77,4.7,4.63,4.7,8.64,0,5.72-4.83,7.96-6.94,8.51-.68.14-1.36.41-1.36.75,0,.2.34.41.95.54,5.38,1.16,9.94,4.7,10,11.3.07,6.26-3.67,9.94-7.96,11.43-4.29,1.5-9.39,1.7-13.54,1.7-2.45,0-5.04-.27-7.01-.27-3.33,0-6.67.07-10.55.2-.55-.41-.55-2.18,0-2.38l1.97-.41c3.06-.61,3.47-1.09,3.47-7.21v-24.02ZM15.24,53.81c0,1.77.07,1.91,3.61,1.91,5.85,0,8.03-3.74,8.03-7.83,0-5.92-3.67-8.85-8.37-8.85-3.2,0-3.27.54-3.27,3.54v11.23ZM15.24,69.53c0,5.31.68,8.64,5.99,8.64s7.69-3.88,7.69-9.39c0-5.92-3.4-10.07-9.94-10.07-3.74,0-3.74.07-3.74,2.79v8.03Z"/>
    <path class="st0" d="M80.98,36.8c0,1.22.2,6.67.82,10.62-.27.82-2.11,1.09-2.59.48-1.84-6.33-6.19-9.73-12.79-9.73-7.55,0-15.65,6.47-15.65,20.01s7.83,20.82,15.99,20.82,12.05-5.92,13.88-10.55c.54-.54,2.18-.34,2.59.48-.48,5.04-1.63,9.12-2.59,10.68-3.67,1.02-8.51,2.52-13.81,2.52-6.67,0-13.48-1.57-18.31-5.17-4.9-3.74-8.64-9.39-8.64-17.83s3.54-14.16,8.23-18.03c4.83-4.02,11.77-6.06,18.85-6.06s11.98,1.63,14.02,1.77Z"/>
    <path class="st0" d="M98.33,82.12c-6.26,0-10.14-1.77-11.57-2.59-1.29-1.5-2.18-6.4-2.18-11.02.48-.88,2.04-.95,2.59-.2,1.36,4.42,5.92,10.68,11.71,10.68,5.04,0,7.35-3.47,7.35-6.87,0-5.51-5.17-8.78-9.26-10.82-4.9-2.45-10.28-6.53-10.28-13.27-.07-7.69,5.92-13,15.79-13,2.25,0,5.04.27,7.76,1.09.88.27,1.5.41,2.31.54.54,1.5,1.22,5.17,1.22,9.73-.34.82-2.04.88-2.65.2-1.16-3.47-4.08-8.44-8.98-8.44-4.49,0-6.94,2.93-6.94,6.33,0,3.13,2.79,5.99,6.19,7.76l4.49,2.38c4.22,2.25,9.6,6.19,9.6,13.68,0,8.37-6.87,13.81-17.15,13.81Z"/>
    <path class="st0" d="M118.68,38.29c-.55-.54-.55-2.18.2-2.38,2.31.14,5.24.2,8.57.2,2.25,0,4.22,0,6.67-.2,0,4.22,2.38,8.37,5.38,14.77l4.49,9.6c.61,1.36,3.06,5.65,4.01,7.35.88-1.63,1.97-3.74,3.81-7.76l3.47-7.49c3.27-7.01,4.97-10.62,6.46-16.47,3.13.27,4.7.2,6.74.2,2.25,0,5.38-.07,7.83-.2.75.41.75,1.7.2,2.38l-1.97.34c-2.79.48-4.15,1.29-4.15,4.9,0,14.02.14,21.37.55,29.94.14,3.13.41,4.76,3.06,5.1l2.18.27c.54.54.54,2.11-.14,2.38-3.13-.14-6.06-.2-9.39-.2-3.06,0-6.81.07-10.07.2-.82-.34-.88-1.91-.2-2.38l2.04-.27c3.13-.41,3.13-1.22,3.13-5.38l-.14-17.69v-7.76h-.14c-5.04,10.89-10.48,22.25-14.97,33.75-.34.27-.82.48-1.36.48-.61,0-1.36-.14-1.77-.41-2.65-8.44-11.02-25.32-14.84-34.16h-.14c-.27,4.42-.34,7.42-.41,10.96-.07,4.42-.14,11.23-.14,15.31,0,3.4.41,4.36,3.13,4.76l2.65.41c.54.48.41,2.04-.14,2.38-2.52-.14-5.44-.2-8.03-.2-2.18,0-4.76.07-7.49.2-.88-.27-.88-2.04-.27-2.38l1.22-.2c3.47-.61,3.88-1.02,4.29-5.24.34-3.33.54-9.26.95-15.72.27-4.56.41-10.07.41-13.75,0-3.88-1.5-4.9-4.22-5.38l-1.5-.27Z"/>
  </g>
</svg>