<?xml version="1.0" encoding="UTF-8"?>
<svg id="Capa_1" xmlns="http://www.w3.org/2000/svg" version="1.1" viewBox="0 0 799.75 132.82">
  <!-- Generator: Adobe Illustrator 30.4.0, SVG Export Plug-In . SVG Version: 2.1.4 Build 226)  -->
  <defs>
    <style>
      .st0 {
        fill: #c92e52;
      }
    </style>
  </defs>
  <g>
    <path class="st0" d="M221.42,131.77v-9.15l4.23-1.14c1.14-.34,2.06-.57,2.06-2.86v-36.58l-14.86,36.01h-12.58l-14.86-36.01v36.58c0,2.29.91,2.52,2.06,2.86l4.23,1.14v9.15h-28.58v-9.15l4.34-1.14c1.14-.34,1.94-.57,1.94-2.86v-51.45c0-2.29-.8-2.52-1.94-2.86l-4.34-1.14v-9.15h25.72l17.72,46.42,17.72-46.42h25.72v9.15l-4.34,1.14c-1.14.34-1.94.57-1.94,2.86v51.45c0,2.29.8,2.52,1.94,2.86l4.34,1.14v9.15h-28.58Z"/>
    <path class="st0" d="M289.68,131.77l-1.71-5.14s-5.49,6.29-15.55,6.29c-8.8,0-18.18-4.12-18.18-17.61,0-8.8,5.94-15.78,19.09-15.78h12.92v-3.89c0-4.23-2.97-7.32-8.57-7.32-8,0-9.15,2.29-9.72,5.95h-10.29s-.57-4.23-.57-11.43c3.77-3.43,12.23-7.09,21.72-7.09,16.01,0,22.87,7.09,22.87,19.89v24.69c0,2.29.57,2.52,1.71,2.86l3.43,1.14v7.43h-17.15ZM286.25,109.25h-10.29c-3.89,0-6.29,1.94-6.29,5.49,0,4.34,2.86,6.17,6.52,6.17,6.63,0,10.06-3.09,10.06-3.09v-8.57Z"/>
    <path class="st0" d="M347.64,131.77l-1.71-5.14s-5.49,6.29-15.55,6.29c-8.8,0-21.61-4.57-21.61-21.49v-13.95c0-16.35,12.58-21.38,22.87-21.38.8,0,7.32,0,12.58,3.43v-16.35c0-2.29-.57-2.52-1.71-2.86l-4-1.14v-7.43h21.15v68.6c0,2.29.57,2.52,1.71,2.86l3.43,1.14v7.43h-17.15ZM344.21,92.56c-2.97-3.77-8.35-3.89-9.15-3.89-1.83,0-10.86,0-10.86,9.6v12.58c0,9.83,8.35,10.06,9.95,10.06,6.63,0,10.06-4.8,10.06-4.8v-23.55Z"/>
    <path class="st0" d="M366.16,131.77v-6.86l3.77-1.14c1.14-.34,1.94-.57,1.94-2.86v-33.15c0-2.29-.57-2.52-1.71-2.86l-4-1.14v-6.86h20.01l.57,12.35h.8c7.09-11.78,10.75-12.35,14.06-12.35h11.43v20.01h-11.2l-1.14-4.12c-.34-.8-.91-1.03-1.94-1.03-1.49,0-2.4,1.14-4,3.2-4.46,5.94-7.43,11.32-7.43,15.21v10.75c0,2.29.91,2.63,2.06,2.86l6.52,1.14v6.86h-29.72Z"/>
    <path class="st0" d="M436.12,76.89v44.02c0,2.29.91,2.52,2.06,2.86l4.23,1.14v6.86h-28.01v-6.86l4.34-1.14c1.14-.34,1.94-.57,1.94-2.86v-33.73c0-2.29-.46-2.4-1.6-2.86l-2.86-1.14v-6.29h19.89ZM420.46,53.46h15.66v14.29h-15.66v-14.29Z"/>
    <path class="st0" d="M483.8,131.77l-1.71-5.14s-5.49,6.29-15.55,6.29c-8.8,0-21.61-4.57-21.61-21.49v-13.95c0-16.35,12.58-21.38,22.87-21.38.8,0,7.32,0,12.58,3.43v-16.35c0-2.29-.57-2.52-1.71-2.86l-4-1.14v-7.43h21.15v68.6c0,2.29.57,2.52,1.71,2.86l3.43,1.14v7.43h-17.15ZM480.37,92.56c-2.97-3.77-8.35-3.89-9.15-3.89-1.83,0-10.86,0-10.86,9.6v12.58c0,9.83,8.35,10.06,9.95,10.06,6.63,0,10.06-4.8,10.06-4.8v-23.55Z"/>
    <path class="st0" d="M564.85,131.77v-9.15l4.34-.8c1.14-.23,2.06-1.03,2.06-2.52,0-1.37-.23-2.52-1.49-7.55h-21.15c-1.26,5.03-1.6,6.17-1.6,7.55,0,1.49.91,2.29,2.06,2.52l4.34.8v9.15h-31.44v-9.15l4.57-.8c1.6-.34,2.63-1.26,2.97-2.52l19.32-65.28h21.72l18.18,65.28c.34,1.26,1.37,2.17,2.97,2.52l4.57.8v9.15h-31.44ZM560.28,66.03h-1.71l-7.66,33.73h16.69l-7.32-33.73Z"/>
    <path class="st0" d="M596.52,131.77v-6.86l4.34-1.14c1.14-.34,2.06-.57,2.06-2.86v-58.88c0-2.29-.57-2.52-1.71-2.86l-2.86-1.14v-6.29h20.01v69.17c0,2.29.91,2.52,2.06,2.86l4.23,1.14v6.86h-28.12Z"/>
    <path class="st0" d="M680.89,111.54c0,16.35-16.01,21.38-26.3,21.38s-26.3-5.03-26.3-21.38v-14.41c0-16.35,16.01-21.38,26.3-21.38s26.3,5.03,26.3,21.38v14.41ZM665.46,97.93c0-9.6-9.03-9.6-10.86-9.6s-10.86,0-10.86,9.6v12.8c0,9.6,9.03,9.6,10.86,9.6s10.86,0,10.86-9.6v-12.8Z"/>
    <path class="st0" d="M723.99,131.77v-35.9c0-7.2-6.52-7.2-7.32-7.2-4.92,0-8.8,1.94-12.12,4.34v27.9c0,2.29.91,2.52,2.06,2.86l4.23,1.14v6.86h-28.01v-6.86l4.34-1.14c1.14-.34,1.94-.57,1.94-2.86v-57.74c0-2.29-.57-2.52-1.71-2.86l-4-1.14v-7.43h21.15v30.18c3.89-3.89,11.32-5.6,15.09-5.6,4.34,0,19.78,0,19.78,19.44v25.15c0,2.29.57,2.52,1.71,2.97l2.86,1.03v6.86h-20.01Z"/>
    <path class="st0" d="M780.24,131.77l-1.71-5.14s-5.49,6.29-15.55,6.29c-8.8,0-18.18-4.12-18.18-17.61,0-8.8,5.94-15.78,19.09-15.78h12.92v-3.89c0-4.23-2.97-7.32-8.57-7.32-8,0-9.15,2.29-9.72,5.95h-10.29s-.57-4.23-.57-11.43c3.77-3.43,12.23-7.09,21.72-7.09,16.01,0,22.87,7.09,22.87,19.89v24.69c0,2.29.57,2.52,1.71,2.86l3.43,1.14v7.43h-17.15ZM776.81,109.25h-10.29c-3.89,0-6.29,1.94-6.29,5.49,0,4.34,2.86,6.17,6.52,6.17,6.63,0,10.06-3.09,10.06-3.09v-8.57Z"/>
  </g>
  <g>
    <g>
      <path class="st0" d="M56.43,5.33c0,3-2.43,5.43-5.43,5.43s-5.43-2.43-5.43-5.43S48.01-.09,51.01-.09s5.43,2.43,5.43,5.43Z"/>
      <g>
        <path class="st0" d="M83.95,33.8h0c-2.99-1.98-10.07-6.39-11.53-7.66-.35-.27-.57-.68-.57-1.16,0-.06,0-.13.01-.19h-.01c.35-1.77.84-4.12.5-6.43-.13-.95-.55-1.81-1.18-2.48h0c-.95-.86-4.65-3.48-8.13-6.07h0c-5.07-3.83-11.38-6.11-18.23-6.11-16.7,0-30.23,13.53-30.23,30.23,0,3.02,1.08,7.82,4.22,9.28h0c.27.11.57.16.88.16.39,0,.75-.09,1.08-.25,13.72-4.58,34.89-7.24,56.53.22h0c.23.08.46.12.71.12.76,0,1.45-.35,1.89-.9h0c1.86-1.8,4.66-5.02,4.89-5.46h0c.21-.35.33-.77.33-1.21,0-.88-.47-1.65-1.17-2.08ZM59.76,28.8c-1.16,0-2.11-.94-2.11-2.11s.94-2.11,2.11-2.11,2.1.94,2.1,2.11-.94,2.11-2.1,2.11Z"/>
        <path class="st0" d="M72.32,18.2c0,.05.01.1.02.16,0,.04.02.08.02.12l-.04-.28Z"/>
      </g>
    </g>
    <path class="st0" d="M70.71,132.68c9.88.01,28.63.03,28.63.03v-2.19c0-1.43-.76-2.73-1.98-3.46-2.22-1.32-5.52-3.73-5.52-6.47v-32.12c-18.13,2.58-27.56,26.09-43.04,26.09-3.41,0-11.19-2.52-11.19-12.22,0-21.12,54.23-3.84,54.23-35.38,0-7.11-6.52-21.86-43.3-21.86-14.64,0-44.43,3.97-44.5,21.81-.03,8.38,7.26,14.73,15.63,14.31,18.36-.9,17.63-19.78,40.81-19.78,6.01,0,10.24,3.32,10.02,9.46-.91,24.78-71.16,2.54-71.16,38.36,0,11.96,9.06,23.65,28.95,23.65,21.99,0,31.43-6.62,36.54-16.08,0,2.51,0,6.41,0,9.95,0,3.26,2.64,5.9,5.89,5.9Z"/>
  </g>
</svg>