<?xml version="1.0" encoding="UTF-8"?>
<svg id="Capa_1" xmlns="http://www.w3.org/2000/svg" version="1.1" viewBox="0 0 262.71 140">
  <!-- Generator: Adobe Illustrator 30.3.0, SVG Export Plug-In . SVG Version: 2.1.3 Build 182)  -->
  <defs>
    <style>
      .st0 {
        font-family: Grad, Grad;
      }

      .st0, .st1, .st2 {
        isolation: isolate;
      }

      .st0, .st2 {
        font-size: 205.86px;
      }

      .st1 {
        display: none;
      }

      .st3 {
        fill: #ce304e;
      }

      .st2 {
        font-family: GaramondPremrPro-MedCapt, 'Garamond Premier Pro';
        letter-spacing: -.06em;
      }
    </style>
  </defs>
  <g id="logo">
    <g>
      <path class="st3" d="M93.58,58.85h2.8v11.05c0,1.5-.11,2.62-.33,3.39s-.49,1.4-.81,1.9c-.32.51-.71.96-1.18,1.36-1.54,1.33-3.56,1.99-6.05,1.99s-4.57-.66-6.1-1.98c-.46-.41-.86-.87-1.18-1.37-.32-.51-.59-1.13-.79-1.86-.21-.73-.31-1.89-.31-3.46v-11.02h2.8v11.05c0,1.83.21,3.1.63,3.82s1.05,1.29,1.91,1.72c.85.43,1.86.65,3.02.65,1.65,0,3-.43,4.04-1.3.55-.46.94-1.01,1.18-1.64s.36-1.71.36-3.25v-11.05h0Z"/>
      <path class="st3" d="M103.35,65.5v1.63c1.13-1.25,2.42-1.88,3.86-1.88.8,0,1.54.21,2.23.62s1.21.98,1.57,1.7c.36.72.54,1.86.54,3.42v7.33h-2.54v-7.3c0-1.31-.2-2.25-.6-2.81s-1.07-.84-2.01-.84c-1.2,0-2.22.6-3.05,1.8v9.16h-2.59v-12.82h2.59Z"/>
      <path class="st3" d="M116.33,60.1c.42,0,.78.14,1.07.43.3.29.45.64.45,1.06s-.15.76-.45,1.06c-.3.3-.66.45-1.07.45s-.73-.15-1.03-.45c-.3-.3-.45-.65-.45-1.05s.15-.74.45-1.04c.3-.3.64-.45,1.03-.45h0ZM115.07,65.5h2.54v12.82h-2.54v-12.82Z"/>
      <path class="st3" d="M130.27,65.5h2.75l-5.66,13.05h-.86l-5.8-13.05h2.78l3.46,7.89,3.33-7.89h0Z"/>
      <path class="st3" d="M145.85,72.13h-9.02c.06,1.23.48,2.2,1.23,2.93.76.72,1.74,1.09,2.93,1.09,1.67,0,3.21-.52,4.63-1.56v2.48c-.78.52-1.55.89-2.32,1.12-.77.22-1.67.33-2.7.33-1.41,0-2.56-.29-3.43-.88s-1.57-1.37-2.1-2.36-.79-2.13-.79-3.44c0-1.95.55-3.54,1.66-4.76s2.54-1.83,4.31-1.83,3.06.59,4.07,1.78c1.01,1.19,1.52,2.78,1.52,4.78v.32h0ZM136.88,70.61h6.45c-.06-1.01-.37-1.79-.91-2.34-.54-.55-1.26-.82-2.17-.82s-1.66.27-2.24.82-.96,1.33-1.14,2.34h.01Z"/>
      <path class="st3" d="M151.62,65.5v2.94l.14-.22c1.23-1.98,2.45-2.97,3.68-2.97.96,0,1.96.48,3,1.45l-1.34,2.23c-.88-.84-1.7-1.25-2.45-1.25-.82,0-1.53.39-2.13,1.17s-.9,1.71-.9,2.77v6.7h-2.55v-12.82s2.55,0,2.55,0Z"/>
      <path class="st3" d="M160.48,77.4v-2.73c.72.5,1.45.91,2.2,1.22s1.38.47,1.89.47.98-.13,1.37-.39c.38-.26.57-.57.57-.93s-.12-.68-.37-.93-.78-.6-1.6-1.07c-1.64-.91-2.71-1.69-3.21-2.33-.51-.65-.76-1.35-.76-2.11,0-.98.38-1.79,1.15-2.41.77-.62,1.75-.93,2.96-.93s2.54.35,3.86,1.06v2.51c-1.5-.91-2.74-1.37-3.69-1.37-.49,0-.89.1-1.19.31s-.45.49-.45.83c0,.3.14.58.41.85s.75.59,1.44.98l.91.52c2.14,1.21,3.21,2.55,3.21,4.01,0,1.05-.41,1.91-1.23,2.58-.82.67-1.88,1.01-3.17,1.01-.76,0-1.44-.08-2.04-.24-.59-.16-1.34-.46-2.24-.9h-.02Z"/>
      <path class="st3" d="M173.33,60.1c.42,0,.78.14,1.07.43.3.29.45.64.45,1.06s-.15.76-.45,1.06c-.3.3-.65.45-1.07.45-.39,0-.73-.15-1.03-.45s-.45-.65-.45-1.05.15-.74.45-1.04.64-.45,1.03-.45h0ZM172.08,65.5h2.54v12.82h-2.54v-12.82Z"/>
      <path class="st3" d="M187.12,58.85h2.55v19.47h-5.42c-1.9,0-3.41-.6-4.54-1.8-1.13-1.2-1.69-2.81-1.69-4.82,0-1.89.59-3.44,1.78-4.65,1.18-1.22,2.7-1.83,4.54-1.83.86,0,1.78.18,2.79.54v-6.91h0ZM187.12,76.15v-8.13c-.79-.4-1.59-.6-2.4-.6-1.26,0-2.27.41-3.02,1.24-.75.83-1.12,1.94-1.12,3.34,0,1.32.33,2.34.98,3.05.39.43.8.72,1.24.86.44.15,1.22.22,2.36.22h1.97v.02Z"/>
      <path class="st3" d="M202.27,70.61v5.45c0,.44.15.66.45.66s.79-.23,1.44-.68v1.55c-.58.37-1.04.62-1.39.76-.35.13-.71.2-1.09.2-1.09,0-1.73-.43-1.92-1.28-1.08.84-2.23,1.25-3.44,1.25-.89,0-1.64-.29-2.23-.89-.59-.59-.89-1.33-.89-2.22,0-.81.29-1.53.87-2.17s1.41-1.14,2.47-1.51l3.25-1.12v-.68c0-1.54-.77-2.31-2.31-2.31-1.38,0-2.73.72-4.04,2.15v-2.77c.98-1.16,2.4-1.74,4.25-1.74,1.38,0,2.5.36,3.33,1.09.28.23.53.54.75.93s.36.77.43,1.16c.06.39.09,1.12.09,2.2l-.02-.03ZM199.77,75.78v-3.8l-1.7.66c-.86.34-1.47.69-1.83,1.04s-.54.78-.54,1.3.17.96.51,1.3c.34.33.78.5,1.32.5.81,0,1.56-.33,2.24-.99h0Z"/>
      <path class="st3" d="M214.71,58.85h2.55v19.47h-5.42c-1.9,0-3.41-.6-4.54-1.8-1.13-1.2-1.69-2.81-1.69-4.82,0-1.89.59-3.44,1.78-4.65,1.18-1.22,2.7-1.83,4.54-1.83.85,0,1.78.18,2.79.54v-6.91h0ZM214.71,76.15v-8.13c-.79-.4-1.59-.6-2.4-.6-1.26,0-2.27.41-3.02,1.24-.75.83-1.12,1.94-1.12,3.34,0,1.32.33,2.34.98,3.05.39.43.8.72,1.24.86.44.15,1.22.22,2.36.22h1.97v.02Z"/>
      <g>
        <path class="st3" d="M79.76,109.38v-19.47h4.88c1.97,0,3.53.49,4.69,1.46,1.16.98,1.74,2.3,1.74,3.96,0,1.13-.28,2.11-.85,2.94s-1.38,1.45-2.44,1.85c.62.41,1.23.97,1.83,1.67.59.71,1.43,1.94,2.51,3.69.68,1.11,1.22,1.94,1.63,2.49l1.03,1.39h-3.32l-.85-1.28s-.08-.13-.17-.24l-.54-.77-.86-1.42-.93-1.52c-.58-.8-1.1-1.44-1.58-1.91s-.91-.81-1.3-1.02-1.03-.31-1.95-.31h-.73v8.47h-2.79v.02ZM83.38,92.28h-.84v6.15h1.06c1.41,0,2.38-.12,2.91-.36.52-.24.93-.61,1.23-1.09s.44-1.04.44-1.67-.16-1.17-.49-1.67-.78-.85-1.37-1.05c-.59-.2-1.57-.31-2.93-.31h-.01Z"/>
        <path class="st3" d="M107.49,103.19h-9.02c.06,1.23.48,2.2,1.23,2.93.76.72,1.74,1.09,2.93,1.09,1.67,0,3.21-.52,4.63-1.56v2.48c-.78.52-1.55.89-2.32,1.12-.77.22-1.67.33-2.7.33-1.41,0-2.56-.29-3.43-.88s-1.57-1.37-2.1-2.36-.79-2.13-.79-3.44c0-1.95.55-3.54,1.66-4.76s2.54-1.83,4.31-1.83,3.06.59,4.07,1.78,1.52,2.78,1.52,4.78v.32h0ZM98.53,101.67h6.45c-.07-1.01-.37-1.79-.91-2.34-.54-.55-1.26-.82-2.17-.82s-1.66.27-2.24.82c-.58.55-.96,1.33-1.14,2.34h.01Z"/>
        <path class="st3" d="M117.68,96.56h2.85l-9.09,19.36h-2.83l4.35-9.29-4.95-10.07h2.89l3.46,7.24,3.32-7.24Z"/>
        <path class="st3" d="M131.89,89.91h2.79v19.22c0,1.79-.18,3.12-.55,3.98-.37.86-.96,1.55-1.78,2.06-.82.52-1.8.77-2.95.77-.18,0-.48-.03-.91-.08l-.52-2.59h.71c.8,0,1.41-.1,1.83-.29s.76-.54,1-1.03c.25-.49.37-1.54.37-3.14v-18.9h.01Z"/>
        <path class="st3" d="M147.39,109.38v-1.64c-.54.59-1.16,1.05-1.85,1.38-.69.33-1.38.49-2.07.49-.81,0-1.55-.2-2.24-.61s-1.2-.95-1.55-1.64-.52-1.84-.52-3.45v-7.34h2.54v7.31c0,1.35.19,2.29.58,2.82s1.06.8,2.03.8c1.21,0,2.23-.59,3.08-1.77v-9.16h2.54v12.82h-2.54,0Z"/>
        <path class="st3" d="M163.2,101.67v5.45c0,.44.15.66.45.66s.79-.23,1.44-.68v1.55c-.58.37-1.04.62-1.39.76-.35.13-.71.2-1.09.2-1.09,0-1.73-.43-1.92-1.28-1.08.84-2.23,1.25-3.44,1.25-.89,0-1.64-.29-2.23-.88s-.89-1.33-.89-2.22c0-.81.29-1.53.87-2.17s1.41-1.14,2.47-1.51l3.25-1.12v-.68c0-1.54-.77-2.31-2.31-2.31-1.38,0-2.73.72-4.04,2.15v-2.77c.98-1.16,2.4-1.74,4.25-1.74,1.38,0,2.5.36,3.33,1.09.28.23.53.54.75.93s.36.77.43,1.16c.06.39.09,1.12.09,2.2l-.02-.04ZM160.7,106.84v-3.8l-1.7.66c-.86.34-1.47.69-1.83,1.04s-.54.78-.54,1.3.17.96.51,1.3c.34.33.78.5,1.32.5.81,0,1.56-.33,2.24-.99h0Z"/>
        <path class="st3" d="M169.79,96.56v1.63c1.13-1.25,2.42-1.88,3.86-1.88.8,0,1.54.21,2.23.62s1.21.98,1.57,1.7c.36.72.54,1.86.54,3.42v7.33h-2.54v-7.3c0-1.31-.2-2.25-.6-2.81-.4-.56-1.07-.84-2.01-.84-1.2,0-2.22.6-3.05,1.8v9.16h-2.59v-12.82h2.59Z"/>
        <path class="st3" d="M206.59,104.86v3.07c-2.04,1.11-4.4,1.67-7.08,1.67-2.17,0-4.02-.44-5.53-1.31-1.51-.87-2.71-2.08-3.6-3.61-.88-1.53-1.32-3.19-1.32-4.98,0-2.83,1.01-5.22,3.03-7.15s4.51-2.9,7.48-2.9c2.04,0,4.32.53,6.82,1.6v3c-2.28-1.3-4.5-1.95-6.68-1.95s-4.08.7-5.55,2.11-2.21,3.17-2.21,5.29.72,3.89,2.17,5.27,3.3,2.06,5.56,2.06,4.66-.72,6.91-2.17h0Z"/>
        <path class="st3" d="M218.36,101.67v5.45c0,.44.15.66.45.66s.79-.23,1.44-.68v1.55c-.58.37-1.04.62-1.39.76-.35.13-.71.2-1.09.2-1.09,0-1.73-.43-1.92-1.28-1.08.84-2.23,1.25-3.44,1.25-.89,0-1.64-.29-2.23-.88s-.89-1.33-.89-2.22c0-.81.29-1.53.87-2.17s1.41-1.14,2.47-1.51l3.25-1.12v-.68c0-1.54-.77-2.31-2.31-2.31-1.38,0-2.73.72-4.04,2.15v-2.77c.98-1.16,2.4-1.74,4.25-1.74,1.38,0,2.5.36,3.33,1.09.28.23.53.54.75.93s.36.77.43,1.16c.06.39.09,1.12.09,2.2l-.02-.04ZM215.87,106.84v-3.8l-1.7.66c-.86.34-1.47.69-1.83,1.04s-.54.78-.54,1.3.17.96.51,1.3c.34.33.78.5,1.32.5.81,0,1.56-.33,2.24-.99h0Z"/>
        <path class="st3" d="M225.2,96.56v2.94l.14-.22c1.23-1.98,2.45-2.97,3.68-2.97.96,0,1.96.48,3,1.45l-1.34,2.23c-.88-.84-1.7-1.25-2.45-1.25-.82,0-1.53.39-2.13,1.17s-.9,1.71-.9,2.77v6.7h-2.55v-12.82s2.55,0,2.55,0Z"/>
        <path class="st3" d="M233.84,89.91h2.54v19.47h-2.54v-19.47Z"/>
        <path class="st3" d="M245.61,96.53c1.95,0,3.57.63,4.86,1.89s1.94,2.84,1.94,4.75-.65,3.38-1.97,4.61c-1.31,1.22-2.96,1.83-4.95,1.83s-3.53-.62-4.82-1.86c-1.29-1.24-1.94-2.79-1.94-4.65s.65-3.44,1.96-4.69c1.31-1.25,2.94-1.87,4.91-1.87h0ZM245.47,98.82c-1.22,0-2.22.4-3,1.2-.78.8-1.17,1.82-1.17,3.05s.4,2.23,1.2,3c.8.78,1.83,1.16,3.08,1.16s2.27-.39,3.06-1.18,1.19-1.79,1.19-3.02-.41-2.23-1.24-3.02c-.83-.8-1.87-1.2-3.12-1.2h0Z"/>
        <path class="st3" d="M254.03,108.46v-2.73c.72.5,1.45.91,2.2,1.22.75.31,1.38.47,1.89.47s.98-.13,1.37-.39c.38-.26.57-.57.57-.93s-.12-.68-.37-.93-.78-.6-1.6-1.07c-1.64-.91-2.71-1.69-3.21-2.33-.51-.65-.76-1.35-.76-2.11,0-.98.38-1.79,1.15-2.41s1.75-.93,2.96-.93,2.54.35,3.86,1.06v2.51c-1.5-.91-2.74-1.37-3.69-1.37-.49,0-.89.1-1.19.31s-.45.49-.45.83c0,.3.14.58.41.85s.75.6,1.44.98l.91.52c2.14,1.21,3.21,2.55,3.21,4.01,0,1.05-.41,1.91-1.23,2.58s-1.88,1.01-3.17,1.01c-.76,0-1.44-.08-2.03-.24-.59-.16-1.34-.46-2.24-.9h-.03Z"/>
      </g>
      <path class="st3" d="M13.41,33.83c0,3.7-3,6.71-6.71,6.71S-.01,37.54-.01,33.83s3-6.71,6.71-6.71,6.71,3,6.71,6.71Z"/>
      <path class="st3" d="M29.5,33.83c0,3.7-3,6.71-6.71,6.71s-6.71-3-6.71-6.71,3-6.71,6.71-6.71,6.71,3,6.71,6.71Z"/>
      <path class="st3" d="M26.87,20.02c0,2.25-1.82,4.07-4.07,4.07s-4.07-1.82-4.07-4.07,1.82-4.07,4.07-4.07,4.07,1.82,4.07,4.07Z"/>
      <path class="st3" d="M45.59,33.83c0,3.7-3,6.71-6.71,6.71s-6.71-3-6.71-6.71,3-6.71,6.71-6.71,6.71,3,6.71,6.71Z"/>
      <rect class="st3" x="6.69" y="44.2" width="32.21" height="5.78"/>
      <g>
        <path class="st3" d="M33.96,82.5h0c0-2.74,0,0,0,0Z"/>
        <path class="st3" d="M33.97,58.35v24.15h0v6.5c0,11.89-10.12,14.72-16.79,12.33-3.94-1.41-5.24-5.86-5.65-9.25h0v-33.73H.07v33.73h.09c.79,15.5,9.08,18.83,19.14,18.83s14.16-7.61,14.67-8.58v7.28h11.6v-51.26s-11.6,0-11.6,0Z"/>
      </g>
    </g>
  </g>
  <g id="_x32_">
    <g class="st1">
      <text class="st2" transform="translate(-1826.66 -1036.92)"><tspan x="0" y="0">BCSM</tspan></text>
    </g>
    <g class="st1">
      <text class="st0" transform="translate(-1826.66 -1239.27)"><tspan x="0" y="0">BCSM</tspan></text>
    </g>
  </g>
</svg>