<?xml version="1.0" encoding="UTF-8"?>
<svg id="Capa_1" xmlns="http://www.w3.org/2000/svg" version="1.1" viewBox="0 0 170.39 140">
  <!-- Generator: Adobe Illustrator 30.3.0, SVG Export Plug-In . SVG Version: 2.1.3 Build 182)  -->
  <defs>
    <style>
      .st0 {
        font-family: Grad, Grad;
      }

      .st0, .st1, .st2 {
        isolation: isolate;
      }

      .st0, .st2 {
        font-size: 205.86px;
      }

      .st1 {
        display: none;
      }

      .st3 {
        fill: #ce304e;
      }

      .st2 {
        font-family: GaramondPremrPro-MedCapt, 'Garamond Premier Pro';
        letter-spacing: -.06em;
      }
    </style>
  </defs>
  <g id="logo">
    <path class="st3" d="M142.5,88.22c4.42,2.01,9.5,3.02,15.08,3.02s6.13-.3,8.64-.9c.7-.15,1.36-.35,1.96-.5v-13.37c-.55.4-1.71,1.06-3.52,1.91-1.76.85-4.07,1.26-6.88,1.26s-4.62-.55-6.78-1.66-3.87-2.66-5.23-4.67c-1.36-2.01-2.01-4.37-2.01-7.04s.65-5.03,2.01-6.98c1.36-2.01,3.07-3.52,5.23-4.62s4.37-1.66,6.78-1.66,3.62.25,5.03.7,2.51.95,3.42,1.51c.85.55,1.46.95,1.76,1.26l.2-.25v-13.32c-.65-.2-1.36-.4-2.11-.55-2.46-.6-5.33-.9-8.54-.9-5.63,0-10.65,1.01-15.08,2.96-4.42,1.96-7.94,4.82-10.55,8.54-2.56,3.72-3.87,8.19-3.87,13.37s1.31,9.6,3.87,13.37c2.56,3.72,6.08,6.58,10.55,8.59M134.16,105.71c-.6,0-1.11.1-1.56.35s-.75.5-1.01.75c-.2.2-.3.4-.4.55v-1.41h-2.91v9.45h2.91v-4.92c0-.35.1-.7.25-1.06s.4-.7.75-.95.75-.4,1.21-.4.75.05,1.01.2c.25.15.45.25.55.4l1.16-2.41c-.15-.1-.4-.25-.75-.4-.35-.1-.75-.2-1.21-.2M102.5,100.34c-.25-.15-.55-.25-.85-.25-.5,0-.9.15-1.21.5s-.5.75-.5,1.21.15.85.5,1.21.75.5,1.26.5.9-.15,1.26-.5.5-.75.5-1.21-.1-.6-.25-.85-.35-.45-.65-.6M110.04,112.8l-2.61-6.78h-3.17l4.02,9.45h3.47l4.02-9.45h-3.12s-2.61,6.78-2.61,6.78ZM119.48,109.58c0-.25.1-.55.25-.8s.4-.5.7-.7.75-.3,1.26-.3.9.1,1.21.3c.3.2.5.45.65.7.15.3.2.55.25.8h-4.32ZM124.31,106.32c-.75-.4-1.61-.55-2.56-.55s-1.96.2-2.71.65c-.75.45-1.31,1.01-1.71,1.76s-.6,1.56-.6,2.51.2,1.96.65,2.76c.45.75,1.06,1.36,1.86,1.76s1.71.6,2.76.6,1.51-.05,2.06-.2c.55-.15,1.01-.3,1.36-.55.35-.2.65-.45.85-.75l-1.21-1.81c-.15.15-.35.35-.6.5s-.6.35-.95.45c-.4.1-.8.2-1.31.2s-1.01-.1-1.41-.3c-.4-.2-.7-.45-.9-.8-.2-.35-.3-.7-.35-1.16h7.14v-.8c0-1.06-.2-1.96-.6-2.66-.4-.7-.95-1.31-1.71-1.66M142.95,110.18c-.45-.2-.95-.35-1.41-.45-.6-.15-1.01-.3-1.36-.45-.3-.2-.5-.4-.5-.7s.15-.5.45-.65.65-.2,1.11-.2.9.1,1.31.25c.4.15.65.3.85.45l1.01-1.76c-.1-.1-.35-.2-.65-.35-.35-.15-.75-.25-1.26-.35s-1.01-.15-1.61-.15-1.36.1-1.96.3-1.11.5-1.51.9-.6.9-.6,1.51.1.85.25,1.21c.2.35.4.6.75.85.3.2.6.4.95.55s.7.25,1.01.3c.35.05.65.15.95.25.25.1.5.2.65.35s.25.35.25.6-.15.55-.5.75c-.3.2-.75.3-1.31.3s-1.01-.1-1.51-.3c-.45-.2-.8-.4-1.01-.6l-1.01,1.96c.15.1.35.25.7.4s.75.3,1.26.45c.5.1,1.11.2,1.76.2s1.06-.05,1.56-.15,1.01-.25,1.46-.5.8-.55,1.06-.95c.25-.4.4-.95.4-1.56s-.15-1.16-.45-1.51c-.3-.4-.7-.65-1.16-.85M167.47,106.01l-2.81,6.88-2.56-6.88h-2.91l3.92,9.45-2.16,4.77h2.96l6.48-14.27h-2.91v.05h0ZM149.08,100.34c-.25-.15-.55-.25-.85-.25-.5,0-.9.15-1.21.5s-.5.75-.5,1.21.15.85.5,1.21.75.5,1.26.5.9-.15,1.26-.5.5-.75.5-1.21-.1-.6-.25-.85-.35-.45-.65-.6M157.47,113.15c-.15.1-.35.15-.6.15s-.55-.1-.7-.35-.2-.6-.2-1.06v-3.42h2.26v-2.41h-2.26v-3.87h-2.91v3.87h-1.71v2.41h1.71v4.22c0,1.06.3,1.86.85,2.36s1.31.75,2.16.75.9-.05,1.31-.15c.4-.1.7-.2.95-.3.25-.1.4-.2.45-.25l-1.06-2.11s-.1.1-.25.2M146.67,115.46h2.91v-9.45h-2.91v9.45ZM52.75,104.86H-.47v10.4h63.92v-19.2h-10.65v8.79h-.05,0ZM21.29,60.54c.1-1.36.55-2.71,1.41-4.12.8-1.41,2.01-2.56,3.62-3.52,1.61-.95,3.62-1.41,6.13-1.41s4.47.5,5.98,1.51,2.61,2.21,3.32,3.62,1.11,2.71,1.11,3.97h-21.56v-.05h-.01ZM56.52,67.67v-1.86c0-5.23-1.01-9.7-3.02-13.32-2.01-3.62-4.82-6.38-8.44-8.29s-7.94-2.86-12.86-2.86-9.75,1.06-13.52,3.22-6.58,5.08-8.54,8.74-2.96,7.84-2.96,12.41,1.11,9.85,3.27,13.67c2.21,3.82,5.23,6.73,9.15,8.79,3.92,2.01,8.49,3.07,13.67,3.07s8.69-.35,11.46-1.01c1.86-.45,3.47-1.01,4.87-1.66v-13.47c-4.97,5.48-14.82,5.63-15.38,5.63h-2.06c-1.91-.2-3.57-.6-5.08-1.36-.95-.45-1.81-1.01-2.56-1.66,0,0-.1-.1-.15-.1s-.1-.1-.15-.15c-1.76-1.66-2.61-3.62-3.02-5.18h0c0-.1-.05-.25-.1-.35-.15-.7-.25-1.46-.3-2.21h35.48c.05-.3.1-.9.15-1.86M100.14,115.46h2.91v-9.45h-2.91v9.45ZM120.29,42.7h-14.57v47.14h14.57s0-47.14,0-47.14ZM10.19,30.64h53.22v-10.4H-.47v19.2h10.65v-8.79h.01ZM98.18,67.82c-1.56-1.91-3.47-3.37-5.83-4.37-2.36-1.01-4.72-1.76-7.14-2.26-2.86-.65-5.13-1.41-6.73-2.31s-2.41-2.06-2.41-3.57.75-2.61,2.26-3.37c1.51-.75,4.52-1.11,6.68-1.11s4.62.4,6.58,1.26c1.96.85,3.37,1.56,4.12,2.16l.1-.2v-10.75c-1.36-.45-2.86-.85-4.57-1.21-2.41-.5-5.03-.75-7.89-.75s-7.94.5-11.01,1.56-5.58,2.56-7.49,4.57-2.86,4.52-2.86,7.49.45,4.32,1.41,5.98c.9,1.66,2.11,3.07,3.62,4.17s3.12,2.01,4.82,2.66c1.71.65,3.42,1.16,5.08,1.51,1.81.4,3.37.8,4.72,1.31s2.41,1.11,3.17,1.86,1.16,1.71,1.16,2.91-.8,2.91-2.41,3.87-3.77,1.46-6.53,1.46-5.13-.55-7.39-1.56-4.52-2.01-5.53-2.91l-.1.25v12.26c1.36.55,3.57,1.06,5.43,1.56,2.51.65,5.48.95,8.79.95s5.18-.25,7.79-.75,5.03-1.36,7.19-2.51c2.21-1.21,3.97-2.81,5.28-4.87,1.31-2.06,2.01-4.62,2.01-7.74s-.75-5.63-2.31-7.54M80.99,109.48c0,.75-.15,1.41-.4,1.96s-.6.95-1.11,1.21c-.45.3-1.01.4-1.61.4s-1.16-.15-1.66-.4-.85-.7-1.11-1.21c-.25-.55-.4-1.21-.4-1.96v-9.25h-2.86v9.4c0,1.26.25,2.31.75,3.27.5.9,1.21,1.61,2.11,2.11s1.96.75,3.22.75,2.26-.25,3.17-.75,1.61-1.21,2.11-2.11.75-2.01.75-3.27v-9.4h-2.91v9.25h-.05,0ZM94.76,106.11c-.6-.25-1.26-.4-1.91-.4s-1.01.1-1.51.3c-.45.2-.85.4-1.16.7s-.5.55-.55.8v-1.51h-2.96v9.45h2.96v-5.13c0-.45.1-.9.35-1.26s.5-.65.85-.85.7-.3,1.11-.3c.6,0,1.06.2,1.46.55.35.4.55.95.55,1.71v5.33h2.96v-5.83c0-.95-.2-1.71-.6-2.26s-.9-1.01-1.51-1.26"/>
  </g>
  <g id="_x32_">
    <g class="st1">
      <text class="st2" transform="translate(-484.66 -1036.92)"><tspan x="0" y="0">BCSM</tspan></text>
    </g>
    <g class="st1">
      <text class="st0" transform="translate(-484.66 -1239.27)"><tspan x="0" y="0">BCSM</tspan></text>
    </g>
  </g>
</svg>