<?xml version="1.0" encoding="UTF-8"?>
<svg id="Capa_1" xmlns="http://www.w3.org/2000/svg" version="1.1" viewBox="0 0 364.22 140">
  <!-- Generator: Adobe Illustrator 30.3.0, SVG Export Plug-In . SVG Version: 2.1.3 Build 182)  -->
  <defs>
    <style>
      .st0 {
        font-family: Grad, Grad;
      }

      .st0, .st1, .st2 {
        isolation: isolate;
      }

      .st0, .st2 {
        font-size: 205.86px;
      }

      .st1 {
        display: none;
      }

      .st3 {
        fill: #ce304e;
      }

      .st2 {
        font-family: GaramondPremrPro-MedCapt, 'Garamond Premier Pro';
        letter-spacing: -.06em;
      }
    </style>
  </defs>
  <g id="logo">
    <g id="Layer_1">
      <g>
        <path class="st3" d="M62.37,61.26c-2.4,1.33-4.39,3.49-5.34,6.08-.64,1.76-.74,3.82-.31,5.96l.1.48,18.23-10.53c-3.12-3.74-8.59-4.26-12.68-1.99Z"/>
        <path class="st3" d="M0,20.27v100h100V20.27H0ZM72.41,89.98c-1.47.33-2.99.5-4.48.5-6,0-11.61-2.75-15.01-7.35-1.91-2.58-3.16-5.6-3.73-8.67-.65,9.37-7.66,16.03-17.18,16.03-10.03,0-17.32-7.34-17.32-17.45v-19.23h7.77v19.23c0,5.67,4.11,9.95,9.55,9.95s9.48-4.28,9.48-9.95v-19.23h7.77v13.08c.15-.73.36-1.45.61-2.14.16-.46.36-.93.56-1.37,1.11-2.42,2.76-4.58,4.75-6.33,2.32-2.04,5.17-3.59,8.18-4.3,5.79-1.37,12.09.46,16.41,4.47,2.44,2.26,4,5.16,5.17,8.14l-24.88,14.38c1.99,1.98,4.85,3.11,7.86,3.11.93,0,1.87-.11,2.79-.32,2.2-.5,7.38-2.35,8.81-8.91l7.5,1.45c-1.57,7.53-7.14,13.23-14.61,14.92h0Z"/>
      </g>
      <g>
        <path class="st3" d="M122.35,53.6v-19.69h6.79v19.69c0,3.58,2.57,6.25,5.97,6.25s5.92-2.66,5.92-6.25v-19.69h6.79v19.69c0,7.39-5.42,12.85-12.71,12.85s-12.76-5.45-12.76-12.85"/>
        <path class="st3" d="M174.34,53.28v12.76h-6.47v-11.66c0-3.12-1.7-4.92-4.36-4.92-1.79,0-3.58,1.01-4.5,2.57v13.99h-6.47v-22.53h6.47v2.66c1.24-1.93,3.62-3.12,6.15-3.12,5.7,0,9.18,3.91,9.18,10.24"/>
        <path class="st3" d="M185.36,66.04h-6.47v-22.54h6.47v22.54ZM186.05,36.48c0,2.16-1.79,3.94-3.94,3.94s-3.95-1.79-3.95-3.94,1.79-3.9,3.95-3.9,3.94,1.79,3.94,3.9"/>
        <polygon class="st3" points="202.9 66.04 197.39 66.04 188.03 43.49 195.05 43.49 200.14 57.22 205.15 43.49 212.21 43.49 202.9 66.04"/>
        <path class="st3" d="M228.41,52.17c-.28-2.25-2.34-3.9-4.73-3.9-2.71,0-4.5,1.46-5.1,3.9h9.83ZM234.71,56.3h-16.2c.6,3.07,2.71,4.68,5.78,4.68,2.01,0,4.13-.92,4.92-2.29l5.05,3.07c-1.65,2.98-5.42,4.72-10.1,4.72-6.61,0-11.84-5.14-11.84-11.84s5.14-11.61,11.7-11.61c6.1,0,10.88,4.72,10.88,10.74,0,.79-.05,1.66-.18,2.53"/>
        <path class="st3" d="M253.15,43.46l-.37,6.06c-.87-.32-1.98-.5-2.89-.5-1.46,0-3.81,1.2-4.92,3.39v13.63h-6.47v-22.54h6.47v2.66c1.1-1.93,3.54-3.12,5.42-3.12,1.15,0,2.07.14,2.76.42"/>
        <path class="st3" d="M253.8,63.65l1.93-4.5c2.11,1.56,4.87,2.39,7.61,2.39,2.02,0,3.31-.78,3.31-1.83-.05-3.44-12.16-.87-12.25-9.18-.05-4.22,3.72-7.48,9.04-7.48,3.17,0,6.33.78,8.59,2.57l-1.84,4.68c-1.74-1.33-4.59-2.34-7.03-2.34-1.65,0-2.76.78-2.76,1.79.05,3.26,12.25,1.46,12.39,9.55,0,4.17-3.67,7.21-8.91,7.21-3.85-.03-7.38-.94-10.09-2.87"/>
        <path class="st3" d="M282.76,66.04h-6.47v-22.54h6.47v22.54ZM283.44,36.48c0,2.16-1.79,3.94-3.94,3.94s-3.95-1.79-3.95-3.94,1.79-3.9,3.95-3.9,3.94,1.79,3.94,3.9"/>
        <polygon class="st3" points="142.14 74.22 142.14 80.73 129.24 80.73 129.24 86.52 140.72 86.52 140.72 93.03 129.24 93.03 129.24 99.83 142.14 99.83 142.14 106.34 122.46 106.34 122.46 74.22 142.14 74.22"/>
        <path class="st3" d="M167.47,83.81v22.53h-6.47v-2.66c-1.28,1.93-3.67,3.12-6.15,3.12-5.7,0-9.18-3.9-9.18-10.28v-12.71h6.47v11.66c0,3.12,1.7,4.87,4.36,4.87,1.74,0,3.54-.96,4.5-2.53v-14h6.47,0Z"/>
        <path class="st3" d="M186.66,83.76l-.37,6.06c-.87-.32-1.98-.5-2.89-.5-1.46,0-3.81,1.2-4.92,3.39v13.63h-6.47v-22.53h6.47v2.66c1.1-1.93,3.54-3.12,5.42-3.12,1.15,0,2.06.13,2.76.41"/>
        <path class="st3" d="M193.5,95.09c0,3.12,2.29,5.5,5.37,5.5s5.37-2.39,5.37-5.5-2.34-5.55-5.37-5.55-5.37,2.34-5.37,5.55M210.57,95.09c0,6.7-5.1,11.7-11.7,11.7s-11.7-5-11.7-11.7,5.05-11.75,11.7-11.75,11.7,5.05,11.7,11.75"/>
        <path class="st3" d="M227.32,83.35c-2.84,0-5.55,1.28-6.66,3.12v-2.66h-6.47v29.97h6.47v-10.1c1.1,1.83,3.81,3.12,6.66,3.12,5.88,0,10.47-5.23,10.47-11.75s-4.59-11.71-10.47-11.71h0ZM225.86,100.61c-3.07,0-5.37-2.39-5.37-5.5s2.29-5.55,5.37-5.55,5.37,2.34,5.37,5.55-2.34,5.5-5.37,5.5Z"/>
        <path class="st3" d="M303.55,33.91v12.25c-1.1-1.83-3.86-3.12-6.65-3.12-5.88,0-10.51,5.19-10.51,11.7s4.64,11.75,10.51,11.75c2.84,0,5.55-1.28,6.65-3.12v2.66h6.47v-32.11h-6.47ZM298.31,60.29c-3.07,0-5.37-2.39-5.37-5.5s2.29-5.55,5.37-5.55,5.37,2.34,5.37,5.55-2.34,5.5-5.37,5.5Z"/>
        <path class="st3" d="M330.53,43.49v2.66c-1.1-1.83-3.86-3.12-6.65-3.12-5.88,0-10.51,5.19-10.51,11.7s4.64,11.75,10.51,11.75c2.84,0,5.55-1.28,6.65-3.12v2.66h6.47v-22.52h-6.47ZM325.31,60.29c-3.07,0-5.37-2.39-5.37-5.5s2.29-5.55,5.37-5.55,5.37,2.34,5.37,5.55-2.34,5.5-5.37,5.5Z"/>
        <path class="st3" d="M357.75,33.91v12.25c-1.1-1.83-3.86-3.12-6.65-3.12-5.88,0-10.51,5.19-10.51,11.7s4.64,11.75,10.51,11.75c2.84,0,5.55-1.28,6.65-3.12v2.66h6.47v-32.11h-6.47ZM352.52,60.27c-3.07,0-5.37-2.39-5.37-5.5s2.29-5.55,5.37-5.55,5.37,2.34,5.37,5.55-2.33,5.5-5.37,5.5Z"/>
        <path class="st3" d="M282.4,83.81v2.66c-1.1-1.83-3.86-3.12-6.65-3.12-5.88,0-10.51,5.19-10.51,11.7s4.64,11.75,10.51,11.75c2.84,0,5.55-1.28,6.65-3.12v2.66h6.47v-22.52h-6.47ZM277.17,100.61c-3.07,0-5.37-2.39-5.37-5.5s2.29-5.55,5.37-5.55,5.37,2.34,5.37,5.55-2.34,5.5-5.37,5.5Z"/>
        <path class="st3" d="M257.97,96.81c-.67,2.78-3.26,4.68-6.16,4.68-1.69,0-3.17-.65-4.25-1.73l10.26-5.93h0l4.84-2.79c-1.55-4.61-5.74-7.74-10.85-7.74-6.54,0-11.51,5.06-11.51,11.79s4.96,11.74,11.51,11.74c5.55,0,10.25-3.61,11.44-8.88l-5.28-1.15h0ZM245.7,95.09c0-3.73,2.61-6.46,6.12-6.46,1.46,0,2.78.49,3.81,1.33l-9.92,5.45v-.32h0Z"/>
      </g>
    </g>
  </g>
  <g id="_x32_">
    <g class="st1">
      <text class="st2" transform="translate(224.98 -1036.92)"><tspan x="0" y="0">BCSM</tspan></text>
    </g>
    <g class="st1">
      <text class="st0" transform="translate(224.98 -1239.27)"><tspan x="0" y="0">BCSM</tspan></text>
    </g>
  </g>
</svg>