<?xml version="1.0" encoding="UTF-8"?>
<svg id="Capa_1" xmlns="http://www.w3.org/2000/svg" version="1.1" viewBox="0 0 99.33 132.82">
  <!-- Generator: Adobe Illustrator 30.3.0, SVG Export Plug-In . SVG Version: 2.1.3 Build 182)  -->
  <defs>
    <style>
      .st0 {
        fill: #c92e52;
      }
    </style>
  </defs>
  <path class="st0" d="M18.8,43.31h0c.27.11.57.16.88.16.39,0,.75-.09,1.08-.25,13.72-4.58,34.89-7.24,56.53.22h0c.23.08.46.12.71.12.76,0,1.45-.35,1.89-.9h0c1.86-1.8,4.66-5.02,4.89-5.46h0c.21-.35.33-.77.33-1.21,0-.88-.47-1.65-1.17-2.08h0c-2.99-1.98-10.07-6.39-11.53-7.66-.35-.27-.57-.68-.57-1.16,0-.06,0-.13.01-.19h-.01c.35-1.77.84-4.12.5-6.43-.13-.95-.55-1.81-1.18-2.48h0c-.95-.86-4.65-3.48-8.13-6.07h0c-2.03-1.53-4.27-2.82-6.66-3.81.03-.22.05-.45.05-.68,0-3-2.43-5.43-5.43-5.43-2.44,0-4.5,1.61-5.19,3.82-.34-.01-.67-.02-1.01-.02-16.7,0-30.23,13.53-30.23,30.23,0,3.02,1.08,7.82,4.22,9.28ZM59.76,24.69c1.16,0,2.1.94,2.1,2.11s-.94,2.11-2.1,2.11-2.11-.94-2.11-2.11.94-2.11,2.11-2.11ZM72.37,18.57s-.02-.08-.02-.12c0-.05,0-.1-.02-.16l.04.28ZM99.33,130.62v2.19s-18.75-.02-28.63-.03c-3.26,0-5.89-2.64-5.89-5.9,0-3.54,0-7.44,0-9.95-5.11,9.47-14.54,16.08-36.54,16.08-19.88,0-28.94-11.69-28.94-23.65,0-35.83,70.25-13.58,71.16-38.36.23-6.13-4.01-9.46-10.02-9.46-23.18,0-22.45,18.88-40.81,19.78-8.37.41-15.66-5.94-15.63-14.31.07-17.84,29.86-21.81,44.5-21.81,36.78,0,43.3,14.74,43.3,21.86,0,31.54-54.23,14.26-54.23,35.38,0,9.69,7.78,12.22,11.19,12.22,15.48,0,24.91-23.51,43.04-26.09v32.12c0,2.75,3.3,5.16,5.52,6.47,1.23.73,1.98,2.03,1.98,3.46Z"/>
</svg>