<?xml version="1.0" encoding="UTF-8"?>
<svg id="Capa_1" xmlns="http://www.w3.org/2000/svg" version="1.1" viewBox="0 0 234.65 140">
  <!-- Generator: Adobe Illustrator 30.3.0, SVG Export Plug-In . SVG Version: 2.1.3 Build 182)  -->
  <defs>
    <style>
      .st0 {
        font-family: Grad, Grad;
      }

      .st0, .st1, .st2 {
        isolation: isolate;
      }

      .st0, .st2 {
        font-size: 205.86px;
      }

      .st1 {
        display: none;
      }

      .st3 {
        fill: #ce304e;
      }

      .st2 {
        font-family: GaramondPremrPro-MedCapt, 'Garamond Premier Pro';
        letter-spacing: -.06em;
      }
    </style>
  </defs>
  <g id="logo">
    <g>
      <path class="st3" d="M62.02,107.63c0-1.68-.84-2.68-2.51-2.68h-2.35v10.06h2.35c1.68,0,2.51-.84,2.51-2.68v-4.86.17h0ZM63.02,104.28c.84.67,1.34,1.84,1.34,3.35v5.2c0,1.51-.5,2.68-1.34,3.35s-2.01,1.01-3.52,1.01h-4.53v-13.91h4.53c1.51,0,2.68.34,3.52,1.01"/>
      <path class="st3" d="M66.37,117.01v-9.89h2.01v9.89h-2.01ZM66.37,105.45v-2.01h2.01v2.01h-2.01Z"/>
      <path class="st3" d="M75.93,114.5c.34-.34.5-.84.5-1.34v-2.51c0-.5,0-1.01-.5-1.34-.34-.34-.84-.5-1.34-.5-1.17,0-1.84.67-1.84,1.84v2.85c0,1.17.67,1.68,1.84,1.68s1.17,0,1.34-.5v-.17h0ZM78.44,107.29v9.89c0,1.01-.34,1.84-1.01,2.51-.67.5-1.68.84-3.02.84s-2.18-.17-2.85-.67-1.01-1.17-1.01-2.01v-.5h2.01v.34c0,.34,0,.67.34.84.17.17.67.34,1.17.34s1.17,0,1.51-.5c.34-.34.34-.67.34-1.17v-1.34h0c0,.34-.5.5-.84.84-.34.17-1.01.34-1.84.34-2.01,0-3.02-1.01-3.02-3.18v-3.52c0-1.01.34-1.68.84-2.35.5-.5,1.34-.84,2.51-.84s2.18.34,2.51,1.17h0v-.84h2.01"/>
      <path class="st3" d="M80.79,117.01v-9.89h2.01v9.89h-2.01ZM80.79,105.45v-2.01h2.01v2.01h-2.01Z"/>
      <path class="st3" d="M87.99,108.8v5.7c0,.34,0,.5.17.67,0,0,.34.17.67.17h1.51v1.51h-2.35c-1.51,0-2.18-.67-2.18-2.18v-6.2h-1.68v-1.51h1.68v-2.68h2.01v2.68h2.35v1.51h-2.35l.17.34h0Z"/>
      <path class="st3" d="M96.54,115c.34-.34.5-.67.5-1.17v-1.51s-.34.17-.67.17h-1.68c-.34.34-.67.34-.84.5,0,.17-.17.5-.17.84v.5c0,.34,0,.5.34.67.17,0,.5.17,1.01.17.67,0,1.34,0,1.51-.5v.34h0ZM100.06,115.51v1.51h-1.34c-.5,0-.84,0-1.17-.34-.17-.17-.34-.5-.5-.84h0c0,.34-.5.67-.84.84-.5.34-1.17.34-2.01.34s-1.51-.17-2.01-.5-.67-1.01-.67-1.68v-1.17c0-.84.17-1.34.5-1.68s1.01-.5,1.84-.67l2.18-.34c.34,0,.67,0,.84-.17.17,0,.34-.17.34-.5v-.67c0-.34,0-.67-.34-.84-.17-.17-.67-.34-1.34-.34s-1.17,0-1.34.34c-.17.17-.34.5-.34.84v.84h-2.01v-.84c0-1.01.34-1.68,1.01-2.01.67-.5,1.68-.67,3.02-.67s2.35.17,3.02.67.84,1.34.84,2.35v5.36h.67"/>
      <path class="st3" d="M101.4,117.01v-13.91h2.01v13.91s-2.01,0-2.01,0Z"/>
      <path class="st3" d="M116.49,112.32c0-.5,0-.84-.34-1.01-.17-.17-.67-.34-1.17-.34h-2.85v4.19h2.85c.67,0,1.01,0,1.34-.34.34-.17.34-.5.34-1.01v-1.68h0l-.17.17v.02ZM115.82,105.45c-.34-.17-.67-.34-1.34-.34h-2.51v4.02h2.68c.5,0,1.01,0,1.17-.34.17-.17.34-.5.34-1.01v-1.51c0-.5,0-.84-.34-1.01M118.83,112.15v2.01c0,1.01-.34,1.68-1.01,2.18s-1.68.67-2.85.67h-5.03v-13.91h4.86c1.34,0,2.18.17,2.85.67s1.01,1.17,1.01,2.18v1.51c0,.67,0,1.17-.5,1.51-.34.34-.84.67-1.34.84h0c1.34.34,2.01,1.01,2.01,2.35"/>
      <path class="st3" d="M128.22,107.29v9.89h-2.01v-.84h0c-.5.67-1.34,1.01-2.68,1.01s-1.68-.17-2.18-.84c-.5-.5-.67-1.17-.67-2.18v-7.21h2.01v6.7c0,.5,0,1.01.34,1.17.17.34.67.34,1.34.34s1.01-.17,1.34-.5c.34-.34.5-.67.5-1.17v-6.7h2.01v.34h0Z"/>
      <path class="st3" d="M131.07,116.68c-.67-.5-1.01-1.17-1.01-2.01v-1.01h2.01v1.01c0,.34,0,.67.34.84.17.17.67.34,1.34.34s1.17,0,1.34-.17c.17,0,.34-.34.34-.67v-.5c0-.17,0-.5-.17-.67,0,0-.34-.34-.67-.34s-.67-.17-1.34-.34c-1.17-.34-2.01-.5-2.51-1.01-.5-.34-.84-1.01-.84-1.68v-.67c0-.84.34-1.51,1.01-1.84.67-.5,1.68-.67,2.85-.67s2.35.17,2.85.67c.67.5,1.01,1.17,1.01,2.01v.84h-2.01v-.84c0-.34,0-.67-.34-.84-.17-.17-.67-.34-1.34-.34s-1.01,0-1.34.17c-.17,0-.34.34-.34.67v.34c0,.34,0,.67.5.84.34,0,.84.34,1.68.5s1.51.34,1.84.5c.5.17.84.5,1.17.84s.5.84.5,1.34v.67c0,.84-.34,1.51-1.01,2.01s-1.68.67-3.02.67-2.35-.17-3.02-.67"/>
      <path class="st3" d="M139.62,117.01v-9.89h2.01v9.89h-2.01ZM139.62,105.45v-2.01h2.01v2.01h-2.01Z"/>
      <path class="st3" d="M151.35,107.63c.5.5.67,1.17.67,2.18v7.21h-2.01v-6.7c0-.5,0-1.01-.34-1.17-.17-.34-.67-.34-1.34-.34s-1.01.17-1.34.5-.5.67-.5,1.17v6.7h-2.01v-9.89h2.01v.84h0c.5-.67,1.34-1.01,2.68-1.01s1.68.17,2.18.84"/>
      <path class="st3" d="M155.88,110.98h3.52v-.5c0-.67,0-1.01-.34-1.34s-.67-.5-1.34-.5-1.17.17-1.34.5-.5.84-.5,1.34v.34h0v.17h0ZM160.57,107.8c.67.5,1.01,1.34,1.01,2.51v2.35h-5.53v1.17c0,.5,0,1.01.5,1.34.34.34.84.5,1.34.5s1.01,0,1.17-.34c.34-.17.34-.5.34-.84v-1.01h2.01v1.17c0,.84-.34,1.68-1.01,2.01-.67.5-1.68.67-2.85.67s-2.35-.34-3.02-.84c-.67-.67-1.01-1.51-1.01-2.68v-3.35c0-1.17.34-2.01,1.01-2.68s1.68-.84,3.02-.84,2.18.34,2.85.84"/>
      <path class="st3" d="M163.92,116.68c-.67-.5-1.01-1.17-1.01-2.01v-1.01h2.01v1.01c0,.34,0,.67.34.84.17.17.67.34,1.34.34s1.17,0,1.34-.17c.17,0,.34-.34.34-.67v-.5c0-.17,0-.5-.17-.67,0,0-.34-.34-.67-.34s-.67-.17-1.34-.34c-1.17-.34-2.01-.5-2.51-1.01-.5-.34-.84-1.01-.84-1.68v-.67c0-.84.34-1.51,1.01-1.84.67-.5,1.68-.67,2.85-.67s2.35.17,2.85.67c.67.5,1.01,1.17,1.01,2.01v.84h-2.01v-.84c0-.34,0-.67-.34-.84-.17-.17-.67-.34-1.34-.34s-1.01,0-1.34.17c-.17,0-.34.34-.34.67v.34c0,.34,0,.67.5.84.34,0,.84.34,1.68.5s1.51.34,1.84.5c.5.17.84.5,1.17.84s.5.84.5,1.34v.67c0,.84-.34,1.51-1.01,2.01s-1.68.67-3.02.67-2.35-.17-3.02-.67"/>
      <path class="st3" d="M172.97,116.68c-.67-.5-1.01-1.17-1.01-2.01v-1.01h2.01v1.01c0,.34,0,.67.34.84.17.17.67.34,1.34.34s1.17,0,1.34-.17c.17,0,.34-.34.34-.67v-.5c0-.17,0-.5-.17-.67,0,0-.34-.34-.67-.34s-.67-.17-1.34-.34c-1.17-.34-2.01-.5-2.51-1.01-.5-.34-.84-1.01-.84-1.68v-.67c0-.84.34-1.51,1.01-1.84.67-.5,1.68-.67,2.85-.67s2.35.17,2.85.67c.67.5,1.01,1.17,1.01,2.01v.84h-2.01v-.84c0-.34,0-.67-.34-.84-.17-.17-.67-.34-1.34-.34s-1.01,0-1.34.17c-.17,0-.34.34-.34.67v.34c0,.34,0,.67.5.84.34,0,.84.34,1.68.5s1.51.34,1.84.5c.5.17.84.5,1.17.84s.5.84.5,1.34v.67c0,.84-.34,1.51-1.01,2.01s-1.68.67-3.02.67-2.35-.17-3.02-.67"/>
      <path class="st3" d="M68.72,128.08c0,.67.34,1.34,1.01,2.01.67-.34,1.17-.67,1.51-1.01.34-.34.5-.67.5-1.17v-.84c0-.34,0-.67-.34-.84-.17-.17-.67-.34-1.17-.34s-.84,0-1.17.34c-.17.17-.34.5-.34.84v1.01h0ZM68.05,136.12c.34.17,1.01.34,2.01.34s1.51,0,2.01-.5l-3.69-4.19c-.34.17-.67.5-.84.67-.17.34-.34.67-.34,1.01v1.17c0,.67.17,1.01.67,1.34M76.26,136.46v1.68h-.84c-.67,0-1.34-.34-2.01-.84-.5.34-1.01.5-1.68.67-.67,0-1.17.17-1.84.17-3.18,0-4.69-1.17-4.69-3.52v-1.17c0-.67.17-1.17.67-1.68.5-.5,1.01-1.01,1.84-1.34-.67-.67-1.01-1.68-1.01-2.68v-1.01c0-1.01.34-1.68,1.01-2.18.67-.5,1.68-.84,2.85-.84s2.01.17,2.68.67,1.01,1.17,1.01,2.18v.67c0,.84-.34,1.51-.84,2.01s-1.34,1.01-2.51,1.51l2.51,3.18v-2.68h1.84v2.35c0,.84-.17,1.51-.5,2.18.34.17.67.34.84.34h.5"/>
      <path class="st3" d="M89,136.46v1.68h-7.37v-13.91h2.01v11.9h5.2l.17.34h0Z"/>
      <path class="st3" d="M94.87,136.12c.34-.34.5-.67.5-1.17v-1.51s-.34.17-.67.17h-1.68c-.34.34-.67.34-.84.5,0,.17-.17.5-.17.84v.5c0,.34,0,.5.34.67.17,0,.5.17,1.01.17.67,0,1.34,0,1.51-.5M98.39,136.62v1.51h-1.34c-.5,0-.84,0-1.17-.34-.17-.17-.34-.5-.5-.84h0c0,.34-.5.67-.84.84-.5.34-1.17.34-2.01.34s-1.51-.17-2.01-.5-.67-1.01-.67-1.68v-1.17c0-.84.17-1.34.5-1.68s1.01-.5,1.84-.67l2.18-.34c.34,0,.67,0,.84-.17.17,0,.34-.17.34-.5v-.67c0-.34,0-.67-.34-.84-.17-.17-.67-.34-1.34-.34s-1.17,0-1.34.34c-.17.17-.34.5-.34.84v.84h-2.01v-.84c0-1.01.34-1.68,1.01-2.01.67-.5,1.68-.67,3.02-.67s2.35.17,3.02.67.84,1.34.84,2.35v5.36h.67"/>
      <path class="st3" d="M101.4,138.13l-2.68-9.89h2.01l1.34,4.86c.17,1.01.34,1.84.5,2.68h.34c0-.5,0-1.34.34-2.51l1.01-5.03h2.01l1.01,4.86c.17,1.17.34,2.01.34,2.68h.34c0-.84.17-1.68.5-2.68l1.34-4.86h2.01l-2.85,9.89h-2.51l-.84-3.52c0-.34,0-.84-.17-1.68,0-.84,0-1.51-.17-2.18h-.34c0,.67,0,1.34-.17,2.18,0,.84-.17,1.34-.17,1.68l-.84,3.52h-2.51"/>
      <path class="st3" d="M116.82,134.95v-1.68h2.01v1.51c0,.5.17,1.01.5,1.17.34.34,1.01.34,1.68.34s1.34,0,1.68-.34c.34-.17.5-.5.5-1.01v-1.17c0-.34,0-.67-.34-1.01s-.5-.5-1.01-.67c-.34,0-.84-.34-1.51-.5-.84-.34-1.51-.5-2.18-.84-.5-.17-1.01-.5-1.34-1.01-.34-.5-.5-1.01-.5-1.68v-1.17c0-1.01.34-1.84,1.17-2.35.84-.5,1.84-.84,3.35-.84s2.51.34,3.35.84,1.17,1.51,1.17,2.68v1.51h-2.01v-1.51c0-.5-.17-1.01-.5-1.17-.34-.34-1.01-.34-1.84-.34-1.51,0-2.18.34-2.18,1.17v1.01c0,.34,0,.67.34.84.17.17.5.5.84.67.34,0,.84.34,1.51.5,1.01.34,1.68.67,2.18.84s1.01.5,1.34,1.01c.34.5.5,1.01.5,1.68v1.68c0,1.17-.34,1.84-1.17,2.35-.84.5-1.84.67-3.35.67-3.02,0-4.53-1.17-4.53-3.52,0,0,.34.34.34.34Z"/>
      <path class="st3" d="M128.56,137.46c-.67-.67-1.01-1.51-1.01-2.68v-3.35c0-1.17.34-2.01,1.01-2.68.67-.67,1.68-.84,3.02-.84s2.18.34,2.85.84c.67.5,1.01,1.17,1.01,2.18v1.17h-2.01v-1.01c0-.34,0-.67-.34-1.01-.34-.17-.67-.34-1.17-.34s-1.17.17-1.34.5c-.34.34-.5.84-.5,1.34v3.18c0,.5,0,1.01.5,1.34.34.34.84.5,1.34.5s1.01,0,1.17-.34c.34-.17.34-.5.34-1.01v-1.17h2.01v1.34c0,.84-.34,1.68-1.01,2.18s-1.68.84-2.85.84-2.35-.34-3.02-.84v-.17.03Z"/>
      <path class="st3" d="M144.48,128.75c.5.5.67,1.17.67,2.18v7.21h-2.01v-6.87c0-.5,0-.84-.34-1.17-.17-.17-.67-.34-1.34-.34s-1.17,0-1.34.5c-.34.34-.5.67-.5,1.17v6.7h-2.01v-13.91h2.01v4.69h0c.5-.67,1.34-1.01,2.68-1.01s1.68.17,2.18.67v.17h0Z"/>
      <path class="st3" d="M152.52,134.78v-3.18c0-1.34-.67-2.01-1.84-2.01s-1.17.17-1.34.5c-.34.34-.5.84-.5,1.34v3.18c0,.5,0,1.01.5,1.34.34.34.67.5,1.34.5,1.17,0,1.84-.67,1.84-1.84v.17ZM147.83,137.46c-.67-.67-1.01-1.51-1.01-2.68v-3.18c0-1.17.34-2.01,1.01-2.68s1.68-1.01,3.02-1.01,2.35.34,3.02,1.01,1.01,1.51,1.01,2.68v3.18c0,1.17-.34,2.01-1.01,2.68s-1.68,1.01-3.02,1.01-2.35-.34-3.02-1.01"/>
      <path class="st3" d="M162.08,134.78v-3.18c0-1.34-.67-2.01-1.84-2.01s-1.17.17-1.34.5c-.34.34-.5.84-.5,1.34v3.18c0,.5,0,1.01.5,1.34.34.34.67.5,1.34.5,1.17,0,1.84-.67,1.84-1.84v.17ZM157.22,137.46c-.67-.67-1.01-1.51-1.01-2.68v-3.18c0-1.17.34-2.01,1.01-2.68s1.68-1.01,3.02-1.01,2.35.34,3.02,1.01,1.01,1.51,1.01,2.68v3.18c0,1.17-.34,2.01-1.01,2.68s-1.68,1.01-3.02,1.01-2.35-.34-3.02-1.01"/>
      <path class="st3" d="M166.1,138.13v-13.91h2.01v13.91h-2.01Z"/>
      <path class="st3" d="M25.31,90.03v-3.02L2.68,69.08l22.63-17.93v-3.02L0,68.24v1.84l25.14,19.95h.17Z"/>
      <path class="st3" d="M209.51,90.03v-3.02l22.63-17.93-22.63-17.93v-3.02l25.14,19.95v1.84l-25.14,19.95v.17h0Z"/>
      <path class="st3" d="M56.65,65.06c-.67-4.53-3.18-7.37-7.37-7.37s-6.87,3.02-7.54,7.37h14.92-.01ZM32.01,68.07h0c0-10.06,7.21-18.44,17.26-18.44s17.1,9.05,17.1,19.11,0,1.68,0,2.68h-24.3c1.01,4.53,4.19,6.87,8.55,6.87s5.7-1.01,8.55-3.52l5.7,5.03c-3.18,4.02-8.05,6.54-14.25,6.54-10.56,0-18.27-7.37-18.27-18.1,0,0-.34-.17-.34-.17Z"/>
      <path class="st3" d="M69.05,80.64l4.19-6.54c3.85,2.68,7.71,4.19,11.06,4.19s4.19-1.01,4.19-2.68h0c0-2.35-3.35-3.02-7.21-4.19-4.86-1.51-10.39-3.69-10.39-10.56h0c0-7.21,5.7-11.23,12.74-11.23s9.22,1.51,13.07,4.02l-3.85,6.87c-3.52-2.01-6.87-3.18-9.55-3.18s-3.69,1.01-3.69,2.35h0c0,2.01,3.35,3.02,7.21,4.36,4.86,1.68,10.56,4.02,10.56,10.39h0c0,7.88-5.87,11.4-13.41,11.4s-10.39-1.68-15.08-5.36"/>
      <path class="st3" d="M125.54,65.06c-.5-4.53-3.18-7.37-7.37-7.37s-6.87,3.02-7.54,7.37h14.92,0ZM100.9,68.07h0c0-10.06,7.21-18.44,17.26-18.44s17.1,9.05,17.1,19.11,0,1.68,0,2.68h-24.3c1.01,4.53,4.19,6.87,8.55,6.87s5.7-1.01,8.55-3.52l5.7,5.03c-3.18,4.02-8.05,6.54-14.25,6.54-10.56,0-18.27-7.37-18.27-18.1,0,0-.34-.17-.34-.17Z"/>
      <path class="st3" d="M140.62,50.31h9.89v7.04c2.01-4.86,5.36-8.05,11.23-7.71v10.39h-.5c-6.54,0-10.73,4.02-10.73,12.4v12.91h-9.89s0-35.03,0-35.03Z"/>
      <path class="st3" d="M192.75,67.91h0c0-5.87-3.86-9.89-8.55-9.89s-8.55,3.85-8.55,9.72h0c0,5.87,3.86,9.72,8.55,9.72s8.55-3.85,8.55-9.72v.17ZM165.93,49.64h9.89v5.7c2.35-3.18,5.7-5.7,10.89-5.7,8.21,0,15.92,6.37,15.92,18.1h0c0,11.9-7.71,18.27-15.92,18.27s-8.55-2.35-10.89-5.2v15.08h-9.89v-46.26h0Z"/>
    </g>
  </g>
  <g id="_x32_">
    <g class="st1">
      <text class="st2" transform="translate(-1543.71 -1036.92)"><tspan x="0" y="0">BCSM</tspan></text>
    </g>
    <g class="st1">
      <text class="st0" transform="translate(-1543.71 -1239.27)"><tspan x="0" y="0">BCSM</tspan></text>
    </g>
  </g>
</svg>