<?xml version="1.0" encoding="UTF-8"?>
<svg id="Capa_1" xmlns="http://www.w3.org/2000/svg" version="1.1" viewBox="0 0 81.88 140">
  <!-- Generator: Adobe Illustrator 30.3.0, SVG Export Plug-In . SVG Version: 2.1.3 Build 182)  -->
  <defs>
    <style>
      .st0 {
        font-family: Grad, Grad;
      }

      .st0, .st1, .st2 {
        isolation: isolate;
      }

      .st0, .st2 {
        font-size: 205.86px;
      }

      .st1 {
        display: none;
      }

      .st3 {
        fill: #ce304e;
      }

      .st2 {
        font-family: GaramondPremrPro-MedCapt, 'Garamond Premier Pro';
        letter-spacing: -.06em;
      }
    </style>
  </defs>
  <g id="logo">
    <g>
      <path class="st3" d="M11.1,20c6.11,0,11.1,4.98,11.1,11.1s-4.98,11.1-11.1,11.1S0,37.21,0,31.1s4.94-11.1,11.1-11.1Z"/>
      <path class="st3" d="M83.47,77.65v.32c0,1.95-.18,3.8-.59,5.62h-40.81c1.4,6.75,6.52,11.14,13.41,11.14,5.84,0,9.87-2.99,13.04-6.75l12.14,8.88c-5.71,7.25-15.04,11.37-24.32,11.37-17.75,0-32.02-11.87-32.02-30.25v-.32c.09-16.76,11.28-30.3,29.53-30.3s29.57,13.54,29.62,30.3h0ZM42.98,70.18h22.83c-1.09-4.53-4.76-8.61-11.41-8.61s-10.33,4.12-11.41,8.61h0ZM2.17,48.9h17.75v57.74H2.17v-57.74h0Z"/>
    </g>
  </g>
  <g id="_x32_">
    <g class="st1">
      <text class="st2" transform="translate(-1109.7 -1036.92)"><tspan x="0" y="0">BCSM</tspan></text>
    </g>
    <g class="st1">
      <text class="st0" transform="translate(-1109.7 -1239.27)"><tspan x="0" y="0">BCSM</tspan></text>
    </g>
  </g>
</svg>