<?xml version="1.0" encoding="UTF-8"?>
<svg id="Capa_1" xmlns="http://www.w3.org/2000/svg" version="1.1" viewBox="0 0 220.28 140">
  <!-- Generator: Adobe Illustrator 30.3.0, SVG Export Plug-In . SVG Version: 2.1.3 Build 182)  -->
  <defs>
    <style>
      .st0 {
        font-family: Grad, Grad;
      }

      .st0, .st1, .st2 {
        isolation: isolate;
      }

      .st0, .st2 {
        font-size: 205.86px;
      }

      .st1 {
        display: none;
      }

      .st3 {
        fill: #ce304e;
      }

      .st2 {
        font-family: GaramondPremrPro-MedCapt, 'Garamond Premier Pro';
        letter-spacing: -.06em;
      }
    </style>
  </defs>
  <g id="logo">
    <g>
      <g>
        <path class="st3" d="M94.39,73.73c0-13.48,10.2-22.7,23.38-22.7,9.68,0,15.27,5.26,18.37,10.72l-8.04,3.95c-1.84-3.56-5.8-6.38-10.34-6.38-7.97,0-13.76,6.12-13.76,14.41s5.8,14.41,13.76,14.41c4.55,0,8.5-2.77,10.34-6.38l8.04,3.89c-3.16,5.46-8.7,10.78-18.37,10.78-13.17,0-23.38-9.21-23.38-22.7"/>
        <path class="st3" d="M175.04,73.73c0-13.22,9.54-22.7,22.59-22.7s22.65,9.48,22.65,22.7-9.54,22.7-22.65,22.7-22.59-9.48-22.59-22.7M210.8,73.73c0-8.22-5.19-14.41-13.18-14.41s-13.11,6.18-13.11,14.41,5.13,14.41,13.11,14.41,13.18-6.25,13.18-14.41"/>
        <polygon class="st3" points="152.51 62.41 152.51 96.39 162.24 96.39 162.24 63.89 152.51 62.41"/>
        <polygon class="st3" points="139.24 51.07 139.24 59.57 149.16 59.57 149.16 59.57 168.74 59.57 168.74 59.57 175.43 59.57 175.43 51.07 139.24 51.07"/>
      </g>
      <g id="Capa_1-21">
        <g>
          <path class="st3" d="M55.65,69.42l5.74-5.84s4.69-4.64,11.36-.43c0,0-2.75,1.91-17.11,6.28"/>
          <path class="st3" d="M73.48,65.59c-.8.02-1.78.16-2.9.54-3.15,1.07-17.51,5.86-17.51,5.86l-6.77,6.77,15.09,15.07s2.64,2.48,6.09,2.13c3.45-.36,4.84-1.07,7.1-3.19s14.03-14.01,14.03-14.01l-11.83-11.85c-.84-.84-1.99-1.33-3.18-1.33h-.12,0Z"/>
          <path class="st3" d="M16.74,84.21c-4.32,1.35-7.77,4.7-7.77,4.7l5.19,5.16s2.03,2.13,6.42,2.35c4.38.22,7.38-3.28,7.38-3.28l13.74-14.37-2.52-2.13s-18.12,6.22-22.44,7.57h0Z"/>
          <path class="st3" d="M13.8,64.75L0,78.77c2.78,3.15,5.29,3.99,8.12,4.73,2.84.74,7.13-.71,7.13-.71l22.6-7.51s-10.09-9.83-10.99-10.66-2.78-2.38-6.58-2.45h-.14c-3.73,0-6.35,2.58-6.35,2.58h.01Z"/>
          <path class="st3" d="M30.07,52.32c.26,3.54,2.2,5.35,2.2,5.35l6.06,5.96-5.87-17.36s-2.64,2.51-2.39,6.05Z"/>
          <path class="st3" d="M34.05,44.81l7.02,21.62,3.26,3.24,12.41-12.56s1.88-2.16,1.84-4.59c-.02-1.62-.51-3.04-1-4.09-.44-.93-1.04-1.77-1.77-2.5l-11.46-11.48-10.29,10.36h0Z"/>
        </g>
      </g>
    </g>
  </g>
  <g id="_x32_">
    <g class="st1">
      <text class="st2" transform="translate(-1256.13 -1036.92)"><tspan x="0" y="0">BCSM</tspan></text>
    </g>
    <g class="st1">
      <text class="st0" transform="translate(-1256.13 -1239.27)"><tspan x="0" y="0">BCSM</tspan></text>
    </g>
  </g>
</svg>