<?xml version="1.0" encoding="UTF-8"?>
<svg id="_x31_" xmlns="http://www.w3.org/2000/svg" version="1.1" viewBox="0 0 170.09 140">
  <!-- Generator: Adobe Illustrator 30.3.0, SVG Export Plug-In . SVG Version: 2.1.3 Build 182)  -->
  <defs>
    <style>
      .st0 {
        font-family: Grad, Grad;
      }

      .st0, .st1, .st2 {
        isolation: isolate;
      }

      .st0, .st2 {
        font-size: 205.86px;
      }

      .st1 {
        display: none;
      }

      .st3 {
        fill: #ce304e;
      }

      .st2 {
        font-family: GaramondPremrPro-MedCapt, 'Garamond Premier Pro';
        letter-spacing: -.06em;
      }
    </style>
  </defs>
  <g id="logo">
    <g id="Layer_2">
      <g id="Capa_11">
        <rect class="st3" x="57.76" y="30.23" width="8.6" height="55.3"/>
        <polygon class="st3" points="151.74 77.78 151.74 60.5 168.57 60.5 168.57 52.89 151.74 52.89 151.74 37.83 169.43 37.83 169.43 30.23 143.13 30.23 143.13 85.53 170.09 85.53 170.09 77.78 151.74 77.78"/>
        <polygon class="st3" points="128.83 55.34 128.84 55.34 128.82 55.32 128.83 55.34"/>
        <polygon class="st3" points="128.83 55.34 128.84 55.34 128.82 55.32 128.83 55.34"/>
        <path class="st3" d="M118.68,60.34l1.32.73,1.07.57c4.96,2.6,7.99,4.43,7.99,8.92,0,7.27-6.54,8.05-9.33,8.05-4.53,0-8.85-1.88-10.49-2.68l-2.94-1.45v10.23l1.56.39c3.81.84,7.7,1.26,11.6,1.25,9.03,0,18.67-4.29,18.67-16.32,0-8.23-4.19-11.51-9.25-14.67h0l-6.23-3.47c-6-3.15-8.07-4.45-8.07-8.66,0-3.76,2.98-6.2,7.59-6.2,3.87,0,7.46,1.45,10.17,2.7l2.91,1.35v-10.06l-1.59-.38c-3.42-.83-6.92-1.24-10.43-1.24-10.45,0-17.21,5.81-17.21,14.76s6.45,12.78,12.67,16.16"/>
        <polygon class="st3" points="102.12 77.78 83.77 77.78 83.77 60.5 100.6 60.5 100.6 52.89 83.77 52.89 83.77 37.83 101.48 37.83 101.48 30.23 75.17 30.23 75.17 85.53 102.12 85.53 102.12 77.78"/>
        <path class="st3" d="M32.15,85.58c1.4-.5,2.75-1.13,4.04-1.89v-26.8h-4.04v28.69Z"/>
        <path class="st3" d="M38.64,82.06c1.42-1.08,2.73-2.32,3.89-3.68v-21.5h-3.89v25.17h0Z"/>
        <path class="st3" d="M25.2,86.95c1.51-.08,3.02-.29,4.49-.65v-29.42h-4.49v30.07Z"/>
        <path class="st3" d="M44.98,74.97c2.35-3.94,3.59-8.44,3.58-13.03v-5.09h-3.58s0,18.12,0,18.12Z"/>
        <rect class="st3" x="18.75" y="29.41" width="4" height="25.44"/>
        <rect class="st3" x="12.41" y="29.41" width="3.89" height="25.44"/>
        <rect class="st3" x="5.92" y="29.41" width="4.04" height="25.44"/>
        <path class="st3" d="M3.9,29.41h-.84C1.35,29.43,0,30.83,0,32.54v22.3h3.9v-25.44h0Z"/>
        <path class="st3" d="M-.47,57.41v4.54c0,13.38,10.28,24.31,23.21,25v-30.07H-.47v.52H-.47ZM11.77,60.21c2.21-.04,4.04,1.72,4.08,3.92.04,2.21-1.72,4.04-3.92,4.08-2.21.04-4.04-1.72-4.08-3.92v-.08c-.02-2.19,1.74-3.98,3.92-4M11.77,70.9c2.21-.04,4.04,1.72,4.08,3.92.04,2.21-1.72,4.04-3.92,4.08-2.21.04-4.04-1.72-4.08-3.92v-.08c-.02-2.19,1.73-3.98,3.92-4h0"/>
        <path class="st3" d="M45.5,29.41h-20.3v25.44h23.36v-22.3c0-1.71-1.35-3.11-3.06-3.13M36.27,51.21c-2.21.05-4.04-1.71-4.09-3.92s1.71-4.04,3.92-4.09,4.04,1.71,4.09,3.92v.09c.02,2.19-1.73,3.98-3.92,4h0M36.27,40.67c-2.19-.02-3.94-1.8-3.92-3.99,0-2.17,1.76-3.92,3.92-3.92s3.92,1.76,3.92,3.92c.02,2.19-1.73,3.98-3.92,4h0"/>
        <path class="st3" d="M69.14,110.65c-.85-.06-1.66.38-2.06,1.13v-1.02h-1.02v6.42h1.02v-3.9c-.04-.94.7-1.72,1.63-1.75h.17c1.03,0,1.51.5,1.51,1.64v4.01h1.02v-3.94c0-1.87-.93-2.59-2.26-2.59"/>
        <rect class="st3" x="73.18" y="110.76" width="1.02" height="6.42"/>
        <path class="st3" d="M63.23,113.71c0,2.18-.84,2.72-2.24,2.72s-2.11-.73-2.11-2.56v-5.45h-1.06v5.57c0,2.14,1.14,3.31,3.15,3.31,2.26,0,3.33-1.32,3.33-3.45v-5.44h-1.07s0,5.3,0,5.3Z"/>
        <path class="st3" d="M73.66,108.07c-.37,0-.68.31-.68.68s.31.68.68.68.68-.31.68-.68-.31-.67-.68-.68"/>
        <polygon class="st3" points="78.33 116.15 76.42 110.76 75.32 110.76 77.65 117.18 78.95 117.18 81.26 110.76 80.2 110.76 78.33 116.15"/>
        <polygon class="st3" points="146.42 116.15 144.52 110.76 143.42 110.76 145.75 117.18 147.05 117.18 149.36 110.76 148.31 110.76 146.42 116.15"/>
        <polygon class="st3" points="135.03 115.66 130.76 108.4 129.38 108.4 129.38 117.18 130.39 117.18 130.39 109.65 134.83 117.18 136.05 117.18 136.05 108.4 135.03 108.4 135.03 115.66"/>
        <path class="st3" d="M140.23,110.65c-1.24,0-2.41.54-2.54,2h1.02c.09-.78.59-1.16,1.45-1.16s1.37.43,1.37,1.45v.47h-.92c-1.64,0-3.22.5-3.22,1.99,0,1.32.94,1.89,2.14,1.89.78.05,1.53-.29,2-.92v.81h1.02v-4.24c0-1.8-1.12-2.3-2.35-2.3M141.52,114.94c0,1-.82,1.55-1.9,1.55-.89,0-1.21-.42-1.21-1.08,0-.94.94-1.26,2.24-1.26h.89v.8h-.02Z"/>
        <polygon class="st3" points="108.19 115.36 106.23 110.76 105.13 110.76 107.65 116.52 106.43 119.41 107.46 119.41 111.01 110.76 109.97 110.76 108.19 115.36"/>
        <path class="st3" d="M122.51,109.72v1.05h-.92v.86h.92v5.56h1.02v-5.56h1.57v-.86h-1.57v-1.16c0-.65.27-1.1.93-1.1.25,0,.49.05.73.14v-.86c-.23-.09-.48-.12-.73-.12-1.28,0-1.91.73-1.91,2.06"/>
        <path class="st3" d="M117.79,110.65c-1.72-.03-3.13,1.33-3.16,3.05v.33c0,1.74,1.41,3.15,3.15,3.16,1.74,0,3.15-1.41,3.16-3.15h0v-.1c.09-1.7-1.21-3.16-2.91-3.26h-.25M119.89,114.05c0,1.45-.81,2.42-2.1,2.42s-2.1-.96-2.1-2.42v-.1c0-1.45.81-2.43,2.1-2.43s2.1.96,2.1,2.44v.09Z"/>
        <path class="st3" d="M167.75,110.65c-1.24,0-2.41.54-2.54,2h1.02c.09-.78.59-1.16,1.45-1.16s1.37.43,1.37,1.45v.47h-.91c-1.65,0-3.22.5-3.22,1.99,0,1.32.94,1.89,2.14,1.89.78.05,1.53-.29,2.01-.92v.81h1.02v-4.24c0-1.8-1.12-2.3-2.35-2.3M169.06,114.94c0,1-.82,1.55-1.9,1.55-.89,0-1.21-.42-1.21-1.08,0-.94.94-1.26,2.24-1.26h.89v.8h-.02Z"/>
        <path class="st3" d="M162.17,111.91v-1.16h-1.02v6.42h1.02v-3.52c0-1.58.82-1.99,2.11-2.05v-.96c-.89-.04-1.73.46-2.11,1.26"/>
        <path class="st3" d="M157.8,111.91v-1.16h-1.02v6.42h1.02v-3.52c0-1.58.82-1.99,2.11-2.05v-.96c-.89-.04-1.73.46-2.11,1.26"/>
        <path class="st3" d="M152.67,110.65c-1.24,0-2.41.54-2.54,2h1.02c.1-.78.59-1.16,1.45-1.16s1.37.43,1.37,1.45v.47h-.92c-1.64,0-3.22.5-3.22,1.99,0,1.32.94,1.89,2.14,1.89.78.05,1.53-.29,2-.92v.81h1.02v-4.24c0-1.8-1.12-2.3-2.35-2.3M153.97,114.94c0,1-.82,1.55-1.9,1.55-.89,0-1.21-.42-1.21-1.08,0-.94.94-1.26,2.24-1.26h.89v.8h-.02Z"/>
        <path class="st3" d="M102.98,115.47v-3.86h1.5v-.86h-1.5v-1.45h-1.02v1.45h-.92v.86h.92v3.95c-.08.86.55,1.61,1.4,1.69h.33c.3,0,.59-.04.87-.13v-.86c-.25.09-.52.15-.78.14-.52,0-.8-.31-.8-.94"/>
        <rect class="st3" x="98.88" y="110.76" width="1.02" height="6.42"/>
        <path class="st3" d="M89.92,111.91v-1.16h-1v6.42h1.02v-3.52c0-1.58.82-1.99,2.11-2.05v-.96c-.89-.04-1.73.46-2.11,1.26"/>
        <path class="st3" d="M84.7,110.65c-1.77,0-3.01,1.35-3.01,3.29v.1c-.13,1.66,1.1,3.12,2.76,3.25.11,0,.23.01.34,0,1.45,0,2.51-.68,2.74-1.96h-1.02c-.14.73-.73,1.12-1.71,1.12-1.32,0-2.01-.81-2.06-2.27h4.84v-.33c0-2.3-1.4-3.19-2.91-3.19M82.76,113.37c.04-1.03.89-1.85,1.92-1.85s1.74.53,1.85,1.85h-3.77Z"/>
        <path class="st3" d="M95.3,113.43c-1.18-.21-1.5-.44-1.5-1.02s.48-.92,1.21-.92,1.21.31,1.35,1.01h.98c-.17-1.39-1.16-1.85-2.32-1.85-1.01,0-2.18.61-2.18,1.8s.57,1.58,2.23,1.89c1,.18,1.5.41,1.5,1.08s-.43,1.02-1.4,1.02-1.45-.48-1.51-1.24h-1c.06,1.32.98,2.09,2.51,2.09s2.35-.78,2.35-1.95c0-1.37-.93-1.66-2.26-1.9"/>
        <path class="st3" d="M99.38,108.07c-.37,0-.68.31-.68.68s.31.68.68.68.68-.31.68-.68h0c0-.37-.31-.67-.68-.68"/>
        <path class="st3" d="M167.03,98.63v-.12c.13-2.23-1.56-4.14-3.79-4.27s-4.14,1.56-4.27,3.79v.61c-.13,2.23,1.56,4.14,3.79,4.27s4.14-1.56,4.27-3.79v-.49M160.31,98.63v-.11c0-1.88,1.04-3.11,2.69-3.11s2.69,1.23,2.69,3.13v.11c0,1.85-1.04,3.1-2.69,3.1s-2.69-1.23-2.69-3.1"/>
        <path class="st3" d="M157.86,98.51c.13-2.23-1.56-4.14-3.79-4.27s-4.14,1.56-4.27,3.79v.61c-.13,2.23,1.56,4.14,3.79,4.27s4.14-1.56,4.27-3.79v-.61ZM156.5,98.65c0,1.85-1.04,3.1-2.69,3.1s-2.69-1.23-2.69-3.1v-.12c0-1.88,1.04-3.11,2.69-3.11s2.69,1.23,2.69,3.13v.11h0Z"/>
        <path class="st3" d="M78.75,101.75c-1.32,0-1.84-.61-1.93-1.58h-1.27c.08,1.68,1.26,2.67,3.22,2.67s3.02-1,3.02-2.49c0-1.74-1.19-2.12-2.91-2.43-1.51-.27-1.92-.57-1.92-1.3s.61-1.18,1.56-1.18,1.54.39,1.73,1.29h1.26c-.22-1.77-1.49-2.37-2.97-2.37-1.29,0-2.78.78-2.78,2.3s.73,2.03,2.86,2.42c1.27.23,1.92.52,1.92,1.38s-.55,1.3-1.79,1.3"/>
        <rect class="st3" x="168.77" y="90.55" width="1.32" height="12.14"/>
        <path class="st3" d="M84.08,91.03c-.48,0-.86.38-.87.86s.38.86.86.87c.47,0,.86-.38.87-.85,0-.47-.39-.86-.86-.86"/>
        <path class="st3" d="M103.1,98.42c0-2.91-1.79-4.08-3.69-4.08-2.26,0-3.84,1.72-3.84,4.21v.12c0,2.53,1.65,4.16,3.98,4.16,1.85,0,3.22-.86,3.5-2.51h-1.3c-.17.96-.91,1.45-2.18,1.45-1.68,0-2.57-1.04-2.64-2.91h6.18v-.44h-.01ZM96.96,97.79c.22-1.45,1.11-2.38,2.45-2.38s2.23.68,2.35,2.38c0,0-4.8,0-4.8,0Z"/>
        <rect class="st3" x="83.44" y="94.47" width="1.3" height="8.21"/>
        <path class="st3" d="M63.11,96.8c1.05-.28,1.77-1.28,1.69-2.37v-.07c0-2.18-1.52-2.91-3.63-2.91h-3.35v11.23h3.84c2.25,0,3.69-1.02,3.69-3.14v-.07c0-1.45-.61-2.3-2.25-2.69M59.13,92.52h2.03c1.57,0,2.31.52,2.31,1.79v.07c0,1.38-.63,1.98-2.27,1.98h-2.07v-3.83h0ZM64,99.53c0,1.37-.73,2.09-2.39,2.09h-2.48v-4.19h2.3c1.8,0,2.57.66,2.57,2.04v.07h0Z"/>
        <path class="st3" d="M130.76,99.51c0-2.12-1.32-2.91-3.82-3.27-2.3-.35-2.7-.91-2.7-2.01s.8-1.82,2.34-1.82,2.37.58,2.64,1.99h1.22c-.22-1.99-1.61-3.09-3.86-3.09-2.12,0-3.63,1.32-3.63,3.05,0,2,1.4,2.73,3.75,3.1,2.14.34,2.72.88,2.72,2.18s-1.11,2.12-2.56,2.12c-2.26,0-2.8-1.13-2.97-2.46h-1.32c.2,1.92,1.29,3.56,4.29,3.56,2.23,0,3.87-1.45,3.87-3.31"/>
        <path class="st3" d="M117.65,100.33c0-1.74-1.19-2.12-2.91-2.43-1.51-.27-1.92-.57-1.92-1.3s.61-1.18,1.56-1.18,1.54.39,1.73,1.29h1.26c-.22-1.77-1.49-2.37-2.97-2.37-1.29,0-2.78.78-2.78,2.3s.73,2.03,2.86,2.42c1.27.23,1.92.52,1.92,1.38s-.55,1.3-1.79,1.3-1.84-.61-1.93-1.58h-1.27c.08,1.68,1.26,2.67,3.22,2.67s3.02-1,3.02-2.49"/>
        <path class="st3" d="M93.93,102.68v-5.04c0-2.38-1.19-3.31-2.91-3.31-1.08-.07-2.11.5-2.64,1.45v-1.32h-1.28v8.21h1.3v-4.96c-.04-1.21.91-2.21,2.11-2.25h.19c1.32,0,1.93.65,1.93,2.09v5.14l1.29-.02h0Z"/>
        <path class="st3" d="M110.42,100.33c0-1.74-1.19-2.12-2.91-2.43-1.51-.27-1.92-.57-1.92-1.3s.61-1.18,1.56-1.18,1.54.39,1.73,1.29h1.26c-.22-1.77-1.49-2.37-2.97-2.37-1.29,0-2.78.78-2.78,2.3s.73,2.03,2.86,2.42c1.27.23,1.92.52,1.92,1.38s-.55,1.3-1.79,1.3-1.84-.61-1.93-1.58h-1.26c.08,1.68,1.26,2.67,3.22,2.67s3.02-1,3.02-2.49"/>
        <path class="st3" d="M146.85,97.55v5.14h1.3v-5.04c0-2.38-1.19-3.31-2.91-3.31-1.08-.07-2.11.5-2.64,1.45v-5.24h-1.29v12.14h1.3v-4.96c-.05-1.21.89-2.22,2.09-2.27h.17c1.32,0,1.93.65,1.93,2.09"/>
        <path class="st3" d="M73.87,102.68v-8.21h-1.3v4.98c.04,1.21-.91,2.21-2.11,2.25h-.15c-1.29,0-1.9-.65-1.9-2.09v-5.14h-1.28v5.2c0,2.26,1.22,3.15,2.86,3.15,1.08.06,2.09-.51,2.61-1.45v1.3h1.28s0,0,0,0Z"/>
        <path class="st3" d="M139.67,99.73h-1.21c-.11,1.2-1.16,2.09-2.35,2.01-1.58,0-2.68-1.07-2.68-3.08v-.12c0-1.93,1.15-3.13,2.64-3.13,1.12-.13,2.14.67,2.27,1.79h1.29c-.25-2.09-1.85-2.91-3.57-2.91-2.2,0-3.99,1.78-4,3.98v.35c-.14,2.15,1.49,4.01,3.64,4.15h.38c1.83.09,3.41-1.26,3.58-3.09"/>
      </g>
    </g>
  </g>
  <g id="_x32_">
    <g class="st1">
      <text class="st2" transform="translate(-213.49 -1036.92)"><tspan x="0" y="0">BCSM</tspan></text>
    </g>
    <g class="st1">
      <text class="st0" transform="translate(-213.49 -1239.27)"><tspan x="0" y="0">BCSM</tspan></text>
    </g>
  </g>
</svg>