<?xml version="1.0" encoding="UTF-8"?>
<svg id="logo" xmlns="http://www.w3.org/2000/svg" version="1.1" viewBox="0 0 353.82 140">
  <!-- Generator: Adobe Illustrator 30.3.0, SVG Export Plug-In . SVG Version: 2.1.3 Build 182)  -->
  <defs>
    <style>
      .st0 {
        fill: #ce304e;
      }
    </style>
  </defs>
  <path class="st0" d="M75.61,90.72l-11.47-.03-1.86,15.28h-17.98s0-13.22,0-13.22l11.12-63.02h30.44s10.99,62.85,10.99,62.85l.03,13.39h-19.53s-1.74-15.25-1.74-15.25ZM73.85,74.02l-2.72-24.05h-1.88s-3.06,24.07-3.06,24.07l7.66-.02Z"/>
  <polygon class="st0" points="39.27 75.22 20.5 75.23 20.5 89.29 40.57 89.3 40.57 105.97 0 105.96 0 29.73 40.25 29.73 40.25 46.34 20.5 46.34 20.5 58.98 39.25 58.98 39.27 75.22"/>
  <polygon class="st0" points="140.06 75.22 121.29 75.23 121.29 89.29 141.36 89.3 141.36 105.97 100.79 105.96 100.79 29.73 141.04 29.73 141.04 46.34 121.29 46.34 121.29 58.98 140.04 58.98 140.06 75.22"/>
  <path class="st0" d="M189.09,44.81c3.9,1.11,6.25,4.43,6.17,8.43-.07,3.35-1.66,6.14-4.67,7.7-1.88.85-3.95,1.39-6.12,1.39h-15.33s0-32.61,0-32.61l16.35.02c1.55,0,3.1.64,4.52,1.16,3.83,1.99,5.31,6.53,3.54,10.42-1,1.66-2.39,2.53-4.46,3.48ZM184.17,42.72c2.39-.03,3.75-2.09,3.64-4.07s-1.67-3.52-3.86-3.54l-8.18-.08v7.81s8.41-.12,8.41-.12ZM184.08,56.81c2.75-.02,4.51-2.12,4.48-4.46-.03-2.34-1.72-4.52-4.35-4.55l-8.44-.1v9.19s8.31-.07,8.31-.07Z"/>
  <path class="st0" d="M188.05,105.6c-4.62,1.66-9.75,1.44-14.19-.37-3.91-1.59-6.12-5.19-6.16-9.35h6.48c.16,2.56,1.61,4.59,4.09,5.13,4.2.92,9.46.21,9.62-3.7.07-1.63-.83-3.13-2.54-3.61l-5.63-1.57c-2.09-.58-4.2-1.04-6.14-1.87-3.19-1.36-4.95-4.12-5-7.56-.06-3.88,1.96-7.21,5.65-8.71,3.9-1.58,8.34-1.73,12.38-.43,4.14,1.33,6.84,4.82,7.08,9.32h-6.33c-.23-2.28-1.47-3.6-3.3-4.44-2.29-.73-4.9-.71-7.05.41-1.28.67-1.9,1.89-1.84,3.2s.96,2.52,2.41,2.91l5.66,1.53c5.28,1.43,10.97,2.49,11.26,9.33.18,4.35-2.08,8.19-6.45,9.77Z"/>
  <path class="st0" d="M239.04,105.97l-.04-14.92c0-1.37-.86-2.74-2.02-3.31-1.5-.74-3.18-.62-4.56.28-1.09.71-2.19,2.26-2.2,3.85l-.05,14.09h-6.19s0-32.64,0-32.64l6.2-.02.03,12.4c1.69-2.43,3.67-3.64,6.33-3.81,4.67-.29,8.14,2.88,8.68,7.59l.04,16.47h-6.21Z"/>
  <path class="st0" d="M301.05,55.34h6.12c-1.43,6.71-8.89,9.05-15.14,6.92-6.85-2.33-9.12-10.41-6.6-16.84,1.86-4.77,6.39-7.46,11.45-7.13,7.41.47,10.72,6.74,10.68,14.09h-16.97c.22,3.7,3.1,6.39,6.87,5.79,1.6-.25,2.99-1.01,3.59-2.83ZM301.07,48.07c-.11-1.93-.89-3.23-2.03-4.09-1.24-.93-2.88-1.1-4.44-.77-2.31.49-3.64,2.55-3.9,4.87l10.37-.02Z"/>
  <path class="st0" d="M273.53,94.27c0,6.84-5.56,12.38-12.42,12.38s-12.42-5.54-12.42-12.38,5.56-12.38,12.42-12.38,12.42,5.54,12.42,12.38ZM266.55,97.78c.74-2.46.69-5.06-.14-7.37-.87-2.46-2.95-3.85-5.38-3.82-2.42.02-4.45,1.47-5.28,3.93-.78,2.31-.79,4.9-.1,7.24.76,2.6,2.87,4.15,5.38,4.17s4.7-1.43,5.52-4.14Z"/>
  <path class="st0" d="M300.69,94.27c0,6.84-5.56,12.38-12.42,12.38s-12.42-5.54-12.42-12.38,5.56-12.38,12.42-12.38,12.42,5.54,12.42,12.38ZM293.73,97.73c.73-2.5.69-5.15-.2-7.49s-3.07-3.75-5.53-3.66c-2.29.09-4.24,1.51-5.06,3.89-.8,2.35-.82,4.94-.1,7.32.78,2.59,2.88,4.12,5.41,4.13,2.55,0,4.69-1.45,5.49-4.19Z"/>
  <path class="st0" d="M265.82,48.2l-.05,14.14h-6.21s0-23.4,0-23.4l6.05-.02.07,3.3c1.58-2.46,3.65-3.72,6.41-3.93,4.56-.34,8.6,2.95,8.64,7.72l.11,16.34h-6.22s-.02-14.76-.02-14.76c0-1.31-.7-2.68-1.79-3.32-1.42-.83-3.12-.81-4.63.05-1.06.6-2.34,2.13-2.35,3.91Z"/>
  <path class="st0" d="M220.35,38.91v23.42s-5.93.02-5.93.02l-.11-2.89c-1.85,2.71-4.29,3.61-7.32,3.52-4.01-.12-7.48-2.94-7.51-7.2l-.11-16.86h6.16s.06,15.48.06,15.48c0,1.9,1.47,3.1,3.19,3.31,2.65.32,5.26-1.49,5.28-4.37l.09-14.43h6.2Z"/>
  <path class="st0" d="M244.35,57.65c-1.48,5.32-9.65,6.51-15.24,4.35-3.1-1.2-5.04-3.9-5.25-7.23h5.74c.27,1.74,1.23,3.07,2.89,3.55,3.01.87,6.52.06,6.55-2.35,0-.83-.64-1.83-1.58-2.06l-4.19-.99c-4.03-.96-8.6-1.6-8.75-6.89-.09-3.08,1.52-5.7,4.46-6.83,3.12-1.21,6.67-1.25,9.86-.13s5.02,3.74,5.28,6.97h-5.6c-.15-1.9-1.42-3.15-3.28-3.34-2.89-.29-5.44.45-5.29,2.65.05.76.96,1.6,1.84,1.79l6.6,1.43c1.68.37,3.45,1.12,4.65,2.36,1.68,1.75,2.01,4.25,1.31,6.73Z"/>
  <path class="st0" d="M330.46,57.5c-1.39,5.47-9.65,6.68-15.31,4.49-3.09-1.2-5.02-3.9-5.22-7.21h5.72c.31,1.78,1.36,3.16,3.09,3.59,2.71.69,5.93.13,6.34-1.98.44-2.28-2.05-2.66-4.22-3.19l-6.21-1.53c-2.6-.64-3.98-3.02-4.05-5.64-.09-3.15,1.6-5.81,4.62-6.9s6.67-1.16,9.85,0,4.87,3.73,5.13,6.91h-5.6c-.13-1.84-1.3-3.09-3.08-3.31-1.38-.17-2.89-.15-4.12.41-.91.41-1.4,1.33-1.34,2.25.04.67.93,1.55,1.79,1.74l6.58,1.44c1.62.35,3.34,1.05,4.54,2.21,1.75,1.7,2.15,4.21,1.51,6.73Z"/>
  <path class="st0" d="M349.49,61.94c-3.61,1.5-7.71,1.42-11.26.03-3.08-1.2-5-3.93-5.19-7.2h5.7c.32,1.66,1.21,3.03,2.88,3.52,2.94.88,6.53.15,6.59-2.34.02-.77-.57-1.78-1.46-2l-3.7-.94c-3.95-1-9.19-1.33-9.36-7.01-.09-3.13,1.59-5.79,4.58-6.89s6.53-1.16,9.66-.1c3.12,1.06,5.09,3.71,5.34,6.99h-5.61c-.14-1.58-.96-2.82-2.47-3.17s-3.16-.35-4.58.21c-1.22.48-2.02,2.06-1.09,3.16,2.3,2.72,14.76.36,14.29,9.64-.14,2.65-1.61,4.95-4.32,6.08Z"/>
  <path class="st0" d="M209.9,101.68c2.4-.1,4.18-1.52,4.44-3.98h6.01c-.3,3.82-2.72,6.99-6.36,8.24-2.88.99-5.98.94-8.85-.14-7.42-2.79-9.34-12.43-5.29-18.86,2.43-3.87,6.8-5.41,11.23-4.97,4.72.47,8.39,3.73,9.03,8.51h-6.05c-.43-2.27-2.21-3.64-4.44-3.62s-4.08,1.28-4.86,3.42c-.92,2.53-.89,5.37-.06,7.93.75,2.3,2.76,3.58,5.21,3.48Z"/>
  <rect class="st0" x="304.42" y="73.3" width="6.23" height="32.67"/>
  <rect class="st0" x="248.4" y="38.9" width="6.21" height="23.44"/>
  <rect class="st0" x="248.4" y="29.73" width="6.21" height="5.51"/>
</svg>